G04 #@! TF.GenerationSoftware,KiCad,Pcbnew,9.0.4-9.0.4-0~ubuntu24.04.1*
G04 #@! TF.CreationDate,2025-08-25T21:36:42-07:00*
G04 #@! TF.ProjectId,iisi-riser-board,69697369-2d72-4697-9365-722d626f6172,rev?*
G04 #@! TF.SameCoordinates,Original*
G04 #@! TF.FileFunction,Legend,Top*
G04 #@! TF.FilePolarity,Positive*
%FSLAX46Y46*%
G04 Gerber Fmt 4.6, Leading zero omitted, Abs format (unit mm)*
G04 Created by KiCad (PCBNEW 9.0.4-9.0.4-0~ubuntu24.04.1) date 2025-08-25 21:36:42*
%MOMM*%
%LPD*%
G01*
G04 APERTURE LIST*
%ADD10C,0.100000*%
%ADD11C,0.125000*%
G04 APERTURE END LIST*
D10*
X128162419Y-91624687D02*
X127686228Y-91958020D01*
X128162419Y-92196115D02*
X127162419Y-92196115D01*
X127162419Y-92196115D02*
X127162419Y-91815163D01*
X127162419Y-91815163D02*
X127210038Y-91719925D01*
X127210038Y-91719925D02*
X127257657Y-91672306D01*
X127257657Y-91672306D02*
X127352895Y-91624687D01*
X127352895Y-91624687D02*
X127495752Y-91624687D01*
X127495752Y-91624687D02*
X127590990Y-91672306D01*
X127590990Y-91672306D02*
X127638609Y-91719925D01*
X127638609Y-91719925D02*
X127686228Y-91815163D01*
X127686228Y-91815163D02*
X127686228Y-92196115D01*
X128114800Y-90815163D02*
X128162419Y-90910401D01*
X128162419Y-90910401D02*
X128162419Y-91100877D01*
X128162419Y-91100877D02*
X128114800Y-91196115D01*
X128114800Y-91196115D02*
X128019561Y-91243734D01*
X128019561Y-91243734D02*
X127638609Y-91243734D01*
X127638609Y-91243734D02*
X127543371Y-91196115D01*
X127543371Y-91196115D02*
X127495752Y-91100877D01*
X127495752Y-91100877D02*
X127495752Y-90910401D01*
X127495752Y-90910401D02*
X127543371Y-90815163D01*
X127543371Y-90815163D02*
X127638609Y-90767544D01*
X127638609Y-90767544D02*
X127733847Y-90767544D01*
X127733847Y-90767544D02*
X127829085Y-91243734D01*
X127495752Y-90338972D02*
X128495752Y-90338972D01*
X127543371Y-90338972D02*
X127495752Y-90243734D01*
X127495752Y-90243734D02*
X127495752Y-90053258D01*
X127495752Y-90053258D02*
X127543371Y-89958020D01*
X127543371Y-89958020D02*
X127590990Y-89910401D01*
X127590990Y-89910401D02*
X127686228Y-89862782D01*
X127686228Y-89862782D02*
X127971942Y-89862782D01*
X127971942Y-89862782D02*
X128067180Y-89910401D01*
X128067180Y-89910401D02*
X128114800Y-89958020D01*
X128114800Y-89958020D02*
X128162419Y-90053258D01*
X128162419Y-90053258D02*
X128162419Y-90243734D01*
X128162419Y-90243734D02*
X128114800Y-90338972D01*
X128162419Y-89291353D02*
X128114800Y-89386591D01*
X128114800Y-89386591D02*
X128019561Y-89434210D01*
X128019561Y-89434210D02*
X127162419Y-89434210D01*
X128162419Y-88910400D02*
X127495752Y-88910400D01*
X127162419Y-88910400D02*
X127210038Y-88958019D01*
X127210038Y-88958019D02*
X127257657Y-88910400D01*
X127257657Y-88910400D02*
X127210038Y-88862781D01*
X127210038Y-88862781D02*
X127162419Y-88910400D01*
X127162419Y-88910400D02*
X127257657Y-88910400D01*
X128114800Y-88005639D02*
X128162419Y-88100877D01*
X128162419Y-88100877D02*
X128162419Y-88291353D01*
X128162419Y-88291353D02*
X128114800Y-88386591D01*
X128114800Y-88386591D02*
X128067180Y-88434210D01*
X128067180Y-88434210D02*
X127971942Y-88481829D01*
X127971942Y-88481829D02*
X127686228Y-88481829D01*
X127686228Y-88481829D02*
X127590990Y-88434210D01*
X127590990Y-88434210D02*
X127543371Y-88386591D01*
X127543371Y-88386591D02*
X127495752Y-88291353D01*
X127495752Y-88291353D02*
X127495752Y-88100877D01*
X127495752Y-88100877D02*
X127543371Y-88005639D01*
X128162419Y-87148496D02*
X127638609Y-87148496D01*
X127638609Y-87148496D02*
X127543371Y-87196115D01*
X127543371Y-87196115D02*
X127495752Y-87291353D01*
X127495752Y-87291353D02*
X127495752Y-87481829D01*
X127495752Y-87481829D02*
X127543371Y-87577067D01*
X128114800Y-87148496D02*
X128162419Y-87243734D01*
X128162419Y-87243734D02*
X128162419Y-87481829D01*
X128162419Y-87481829D02*
X128114800Y-87577067D01*
X128114800Y-87577067D02*
X128019561Y-87624686D01*
X128019561Y-87624686D02*
X127924323Y-87624686D01*
X127924323Y-87624686D02*
X127829085Y-87577067D01*
X127829085Y-87577067D02*
X127781466Y-87481829D01*
X127781466Y-87481829D02*
X127781466Y-87243734D01*
X127781466Y-87243734D02*
X127733847Y-87148496D01*
X126556704Y-92256115D02*
X126556704Y-91660877D01*
X126842419Y-92375163D02*
X125842419Y-91958496D01*
X125842419Y-91958496D02*
X126842419Y-91541830D01*
X126842419Y-91125162D02*
X125842419Y-91125162D01*
X125842419Y-91125162D02*
X125842419Y-90648972D01*
X125842419Y-90648972D02*
X125890038Y-90529924D01*
X125890038Y-90529924D02*
X125937657Y-90470401D01*
X125937657Y-90470401D02*
X126032895Y-90410877D01*
X126032895Y-90410877D02*
X126175752Y-90410877D01*
X126175752Y-90410877D02*
X126270990Y-90470401D01*
X126270990Y-90470401D02*
X126318609Y-90529924D01*
X126318609Y-90529924D02*
X126366228Y-90648972D01*
X126366228Y-90648972D02*
X126366228Y-91125162D01*
X126175752Y-89339448D02*
X126842419Y-89339448D01*
X125794800Y-89637067D02*
X126509085Y-89934686D01*
X126509085Y-89934686D02*
X126509085Y-89160877D01*
X126842419Y-88029925D02*
X126842419Y-88744210D01*
X126842419Y-88387067D02*
X125842419Y-88387067D01*
X125842419Y-88387067D02*
X125985276Y-88506115D01*
X125985276Y-88506115D02*
X126080514Y-88625163D01*
X126080514Y-88625163D02*
X126128133Y-88744210D01*
X126794800Y-87553734D02*
X126842419Y-87375163D01*
X126842419Y-87375163D02*
X126842419Y-87077544D01*
X126842419Y-87077544D02*
X126794800Y-86958496D01*
X126794800Y-86958496D02*
X126747180Y-86898972D01*
X126747180Y-86898972D02*
X126651942Y-86839449D01*
X126651942Y-86839449D02*
X126556704Y-86839449D01*
X126556704Y-86839449D02*
X126461466Y-86898972D01*
X126461466Y-86898972D02*
X126413847Y-86958496D01*
X126413847Y-86958496D02*
X126366228Y-87077544D01*
X126366228Y-87077544D02*
X126318609Y-87315639D01*
X126318609Y-87315639D02*
X126270990Y-87434687D01*
X126270990Y-87434687D02*
X126223371Y-87494210D01*
X126223371Y-87494210D02*
X126128133Y-87553734D01*
X126128133Y-87553734D02*
X126032895Y-87553734D01*
X126032895Y-87553734D02*
X125937657Y-87494210D01*
X125937657Y-87494210D02*
X125890038Y-87434687D01*
X125890038Y-87434687D02*
X125842419Y-87315639D01*
X125842419Y-87315639D02*
X125842419Y-87018020D01*
X125842419Y-87018020D02*
X125890038Y-86839449D01*
D11*
X129635595Y-96184430D02*
X128835595Y-96184430D01*
X129597500Y-96184430D02*
X129635595Y-96260621D01*
X129635595Y-96260621D02*
X129635595Y-96413002D01*
X129635595Y-96413002D02*
X129597500Y-96489192D01*
X129597500Y-96489192D02*
X129559404Y-96527287D01*
X129559404Y-96527287D02*
X129483214Y-96565383D01*
X129483214Y-96565383D02*
X129254642Y-96565383D01*
X129254642Y-96565383D02*
X129178452Y-96527287D01*
X129178452Y-96527287D02*
X129140357Y-96489192D01*
X129140357Y-96489192D02*
X129102261Y-96413002D01*
X129102261Y-96413002D02*
X129102261Y-96260621D01*
X129102261Y-96260621D02*
X129140357Y-96184430D01*
X129635595Y-95689192D02*
X129597500Y-95765382D01*
X129597500Y-95765382D02*
X129559404Y-95803477D01*
X129559404Y-95803477D02*
X129483214Y-95841573D01*
X129483214Y-95841573D02*
X129254642Y-95841573D01*
X129254642Y-95841573D02*
X129178452Y-95803477D01*
X129178452Y-95803477D02*
X129140357Y-95765382D01*
X129140357Y-95765382D02*
X129102261Y-95689192D01*
X129102261Y-95689192D02*
X129102261Y-95574906D01*
X129102261Y-95574906D02*
X129140357Y-95498715D01*
X129140357Y-95498715D02*
X129178452Y-95460620D01*
X129178452Y-95460620D02*
X129254642Y-95422525D01*
X129254642Y-95422525D02*
X129483214Y-95422525D01*
X129483214Y-95422525D02*
X129559404Y-95460620D01*
X129559404Y-95460620D02*
X129597500Y-95498715D01*
X129597500Y-95498715D02*
X129635595Y-95574906D01*
X129635595Y-95574906D02*
X129635595Y-95689192D01*
X129102261Y-95155858D02*
X129635595Y-95003477D01*
X129635595Y-95003477D02*
X129254642Y-94851096D01*
X129254642Y-94851096D02*
X129635595Y-94698715D01*
X129635595Y-94698715D02*
X129102261Y-94546334D01*
X129102261Y-94241572D02*
X129635595Y-94241572D01*
X129178452Y-94241572D02*
X129140357Y-94203477D01*
X129140357Y-94203477D02*
X129102261Y-94127287D01*
X129102261Y-94127287D02*
X129102261Y-94013001D01*
X129102261Y-94013001D02*
X129140357Y-93936810D01*
X129140357Y-93936810D02*
X129216547Y-93898715D01*
X129216547Y-93898715D02*
X129635595Y-93898715D01*
X129102261Y-93632048D02*
X129102261Y-93327286D01*
X128835595Y-93517762D02*
X129521309Y-93517762D01*
X129521309Y-93517762D02*
X129597500Y-93479667D01*
X129597500Y-93479667D02*
X129635595Y-93403477D01*
X129635595Y-93403477D02*
X129635595Y-93327286D01*
X129635595Y-92946334D02*
X129597500Y-93022524D01*
X129597500Y-93022524D02*
X129559404Y-93060619D01*
X129559404Y-93060619D02*
X129483214Y-93098715D01*
X129483214Y-93098715D02*
X129254642Y-93098715D01*
X129254642Y-93098715D02*
X129178452Y-93060619D01*
X129178452Y-93060619D02*
X129140357Y-93022524D01*
X129140357Y-93022524D02*
X129102261Y-92946334D01*
X129102261Y-92946334D02*
X129102261Y-92832048D01*
X129102261Y-92832048D02*
X129140357Y-92755857D01*
X129140357Y-92755857D02*
X129178452Y-92717762D01*
X129178452Y-92717762D02*
X129254642Y-92679667D01*
X129254642Y-92679667D02*
X129483214Y-92679667D01*
X129483214Y-92679667D02*
X129559404Y-92717762D01*
X129559404Y-92717762D02*
X129597500Y-92755857D01*
X129597500Y-92755857D02*
X129635595Y-92832048D01*
X129635595Y-92832048D02*
X129635595Y-92946334D01*
X129102261Y-92413000D02*
X129635595Y-92260619D01*
X129635595Y-92260619D02*
X129254642Y-92108238D01*
X129254642Y-92108238D02*
X129635595Y-91955857D01*
X129635595Y-91955857D02*
X129102261Y-91803476D01*
X129102261Y-91498714D02*
X129635595Y-91498714D01*
X129178452Y-91498714D02*
X129140357Y-91460619D01*
X129140357Y-91460619D02*
X129102261Y-91384429D01*
X129102261Y-91384429D02*
X129102261Y-91270143D01*
X129102261Y-91270143D02*
X129140357Y-91193952D01*
X129140357Y-91193952D02*
X129216547Y-91155857D01*
X129216547Y-91155857D02*
X129635595Y-91155857D01*
X129635595Y-90432047D02*
X128835595Y-90432047D01*
X129597500Y-90432047D02*
X129635595Y-90508238D01*
X129635595Y-90508238D02*
X129635595Y-90660619D01*
X129635595Y-90660619D02*
X129597500Y-90736809D01*
X129597500Y-90736809D02*
X129559404Y-90774904D01*
X129559404Y-90774904D02*
X129483214Y-90813000D01*
X129483214Y-90813000D02*
X129254642Y-90813000D01*
X129254642Y-90813000D02*
X129178452Y-90774904D01*
X129178452Y-90774904D02*
X129140357Y-90736809D01*
X129140357Y-90736809D02*
X129102261Y-90660619D01*
X129102261Y-90660619D02*
X129102261Y-90508238D01*
X129102261Y-90508238D02*
X129140357Y-90432047D01*
X129635595Y-89936809D02*
X129597500Y-90012999D01*
X129597500Y-90012999D02*
X129559404Y-90051094D01*
X129559404Y-90051094D02*
X129483214Y-90089190D01*
X129483214Y-90089190D02*
X129254642Y-90089190D01*
X129254642Y-90089190D02*
X129178452Y-90051094D01*
X129178452Y-90051094D02*
X129140357Y-90012999D01*
X129140357Y-90012999D02*
X129102261Y-89936809D01*
X129102261Y-89936809D02*
X129102261Y-89822523D01*
X129102261Y-89822523D02*
X129140357Y-89746332D01*
X129140357Y-89746332D02*
X129178452Y-89708237D01*
X129178452Y-89708237D02*
X129254642Y-89670142D01*
X129254642Y-89670142D02*
X129483214Y-89670142D01*
X129483214Y-89670142D02*
X129559404Y-89708237D01*
X129559404Y-89708237D02*
X129597500Y-89746332D01*
X129597500Y-89746332D02*
X129635595Y-89822523D01*
X129635595Y-89822523D02*
X129635595Y-89936809D01*
X129102261Y-88984427D02*
X129635595Y-88984427D01*
X129102261Y-89327284D02*
X129521309Y-89327284D01*
X129521309Y-89327284D02*
X129597500Y-89289189D01*
X129597500Y-89289189D02*
X129635595Y-89212999D01*
X129635595Y-89212999D02*
X129635595Y-89098713D01*
X129635595Y-89098713D02*
X129597500Y-89022522D01*
X129597500Y-89022522D02*
X129559404Y-88984427D01*
X129102261Y-88260617D02*
X129749880Y-88260617D01*
X129749880Y-88260617D02*
X129826071Y-88298712D01*
X129826071Y-88298712D02*
X129864166Y-88336808D01*
X129864166Y-88336808D02*
X129902261Y-88412998D01*
X129902261Y-88412998D02*
X129902261Y-88527284D01*
X129902261Y-88527284D02*
X129864166Y-88603474D01*
X129597500Y-88260617D02*
X129635595Y-88336808D01*
X129635595Y-88336808D02*
X129635595Y-88489189D01*
X129635595Y-88489189D02*
X129597500Y-88565379D01*
X129597500Y-88565379D02*
X129559404Y-88603474D01*
X129559404Y-88603474D02*
X129483214Y-88641570D01*
X129483214Y-88641570D02*
X129254642Y-88641570D01*
X129254642Y-88641570D02*
X129178452Y-88603474D01*
X129178452Y-88603474D02*
X129140357Y-88565379D01*
X129140357Y-88565379D02*
X129102261Y-88489189D01*
X129102261Y-88489189D02*
X129102261Y-88336808D01*
X129102261Y-88336808D02*
X129140357Y-88260617D01*
X129635595Y-87879664D02*
X128835595Y-87879664D01*
X129140357Y-87879664D02*
X129102261Y-87803474D01*
X129102261Y-87803474D02*
X129102261Y-87651093D01*
X129102261Y-87651093D02*
X129140357Y-87574902D01*
X129140357Y-87574902D02*
X129178452Y-87536807D01*
X129178452Y-87536807D02*
X129254642Y-87498712D01*
X129254642Y-87498712D02*
X129483214Y-87498712D01*
X129483214Y-87498712D02*
X129559404Y-87536807D01*
X129559404Y-87536807D02*
X129597500Y-87574902D01*
X129597500Y-87574902D02*
X129635595Y-87651093D01*
X129635595Y-87651093D02*
X129635595Y-87803474D01*
X129635595Y-87803474D02*
X129597500Y-87879664D01*
X129635595Y-87155854D02*
X129102261Y-87155854D01*
X129254642Y-87155854D02*
X129178452Y-87117759D01*
X129178452Y-87117759D02*
X129140357Y-87079664D01*
X129140357Y-87079664D02*
X129102261Y-87003473D01*
X129102261Y-87003473D02*
X129102261Y-86927283D01*
X129635595Y-86546331D02*
X129597500Y-86622521D01*
X129597500Y-86622521D02*
X129559404Y-86660616D01*
X129559404Y-86660616D02*
X129483214Y-86698712D01*
X129483214Y-86698712D02*
X129254642Y-86698712D01*
X129254642Y-86698712D02*
X129178452Y-86660616D01*
X129178452Y-86660616D02*
X129140357Y-86622521D01*
X129140357Y-86622521D02*
X129102261Y-86546331D01*
X129102261Y-86546331D02*
X129102261Y-86432045D01*
X129102261Y-86432045D02*
X129140357Y-86355854D01*
X129140357Y-86355854D02*
X129178452Y-86317759D01*
X129178452Y-86317759D02*
X129254642Y-86279664D01*
X129254642Y-86279664D02*
X129483214Y-86279664D01*
X129483214Y-86279664D02*
X129559404Y-86317759D01*
X129559404Y-86317759D02*
X129597500Y-86355854D01*
X129597500Y-86355854D02*
X129635595Y-86432045D01*
X129635595Y-86432045D02*
X129635595Y-86546331D01*
X129102261Y-86012997D02*
X129635595Y-85860616D01*
X129635595Y-85860616D02*
X129254642Y-85708235D01*
X129254642Y-85708235D02*
X129635595Y-85555854D01*
X129635595Y-85555854D02*
X129102261Y-85403473D01*
X129102261Y-85098711D02*
X129635595Y-85098711D01*
X129178452Y-85098711D02*
X129140357Y-85060616D01*
X129140357Y-85060616D02*
X129102261Y-84984426D01*
X129102261Y-84984426D02*
X129102261Y-84870140D01*
X129102261Y-84870140D02*
X129140357Y-84793949D01*
X129140357Y-84793949D02*
X129216547Y-84755854D01*
X129216547Y-84755854D02*
X129635595Y-84755854D01*
X129559404Y-84374901D02*
X129597500Y-84336806D01*
X129597500Y-84336806D02*
X129635595Y-84374901D01*
X129635595Y-84374901D02*
X129597500Y-84412997D01*
X129597500Y-84412997D02*
X129559404Y-84374901D01*
X129559404Y-84374901D02*
X129635595Y-84374901D01*
X129597500Y-83651092D02*
X129635595Y-83727283D01*
X129635595Y-83727283D02*
X129635595Y-83879664D01*
X129635595Y-83879664D02*
X129597500Y-83955854D01*
X129597500Y-83955854D02*
X129559404Y-83993949D01*
X129559404Y-83993949D02*
X129483214Y-84032045D01*
X129483214Y-84032045D02*
X129254642Y-84032045D01*
X129254642Y-84032045D02*
X129178452Y-83993949D01*
X129178452Y-83993949D02*
X129140357Y-83955854D01*
X129140357Y-83955854D02*
X129102261Y-83879664D01*
X129102261Y-83879664D02*
X129102261Y-83727283D01*
X129102261Y-83727283D02*
X129140357Y-83651092D01*
X129635595Y-83193950D02*
X129597500Y-83270140D01*
X129597500Y-83270140D02*
X129559404Y-83308235D01*
X129559404Y-83308235D02*
X129483214Y-83346331D01*
X129483214Y-83346331D02*
X129254642Y-83346331D01*
X129254642Y-83346331D02*
X129178452Y-83308235D01*
X129178452Y-83308235D02*
X129140357Y-83270140D01*
X129140357Y-83270140D02*
X129102261Y-83193950D01*
X129102261Y-83193950D02*
X129102261Y-83079664D01*
X129102261Y-83079664D02*
X129140357Y-83003473D01*
X129140357Y-83003473D02*
X129178452Y-82965378D01*
X129178452Y-82965378D02*
X129254642Y-82927283D01*
X129254642Y-82927283D02*
X129483214Y-82927283D01*
X129483214Y-82927283D02*
X129559404Y-82965378D01*
X129559404Y-82965378D02*
X129597500Y-83003473D01*
X129597500Y-83003473D02*
X129635595Y-83079664D01*
X129635595Y-83079664D02*
X129635595Y-83193950D01*
X129635595Y-82584425D02*
X129102261Y-82584425D01*
X129178452Y-82584425D02*
X129140357Y-82546330D01*
X129140357Y-82546330D02*
X129102261Y-82470140D01*
X129102261Y-82470140D02*
X129102261Y-82355854D01*
X129102261Y-82355854D02*
X129140357Y-82279663D01*
X129140357Y-82279663D02*
X129216547Y-82241568D01*
X129216547Y-82241568D02*
X129635595Y-82241568D01*
X129216547Y-82241568D02*
X129140357Y-82203473D01*
X129140357Y-82203473D02*
X129102261Y-82127282D01*
X129102261Y-82127282D02*
X129102261Y-82012997D01*
X129102261Y-82012997D02*
X129140357Y-81936806D01*
X129140357Y-81936806D02*
X129216547Y-81898711D01*
X129216547Y-81898711D02*
X129635595Y-81898711D01*
M02*
