G04 #@! TF.GenerationSoftware,KiCad,Pcbnew,9.0.4-9.0.4-0~ubuntu24.04.1*
G04 #@! TF.CreationDate,2025-08-25T21:36:42-07:00*
G04 #@! TF.ProjectId,iisi-riser-board,69697369-2d72-4697-9365-722d626f6172,rev?*
G04 #@! TF.SameCoordinates,Original*
G04 #@! TF.FileFunction,Copper,L1,Top*
G04 #@! TF.FilePolarity,Positive*
%FSLAX46Y46*%
G04 Gerber Fmt 4.6, Leading zero omitted, Abs format (unit mm)*
G04 Created by KiCad (PCBNEW 9.0.4-9.0.4-0~ubuntu24.04.1) date 2025-08-25 21:36:42*
%MOMM*%
%LPD*%
G01*
G04 APERTURE LIST*
G04 Aperture macros list*
%AMRoundRect*
0 Rectangle with rounded corners*
0 $1 Rounding radius*
0 $2 $3 $4 $5 $6 $7 $8 $9 X,Y pos of 4 corners*
0 Add a 4 corners polygon primitive as box body*
4,1,4,$2,$3,$4,$5,$6,$7,$8,$9,$2,$3,0*
0 Add four circle primitives for the rounded corners*
1,1,$1+$1,$2,$3*
1,1,$1+$1,$4,$5*
1,1,$1+$1,$6,$7*
1,1,$1+$1,$8,$9*
0 Add four rect primitives between the rounded corners*
20,1,$1+$1,$2,$3,$4,$5,0*
20,1,$1+$1,$4,$5,$6,$7,0*
20,1,$1+$1,$6,$7,$8,$9,0*
20,1,$1+$1,$8,$9,$2,$3,0*%
%AMFreePoly0*
4,1,9,1.362500,0.475000,0.937500,0.475000,0.937500,-0.475000,1.362500,-0.475000,1.362500,-1.250000,-0.937500,-1.250000,-0.937500,1.250000,1.362500,1.250000,1.362500,0.475000,1.362500,0.475000,$1*%
G04 Aperture macros list end*
G04 #@! TA.AperFunction,SMDPad,CuDef*
%ADD10RoundRect,0.100000X0.575000X-0.437500X0.575000X0.437500X-0.575000X0.437500X-0.575000X-0.437500X0*%
G04 #@! TD*
G04 #@! TA.AperFunction,SMDPad,CuDef*
%ADD11RoundRect,0.100000X0.625000X-0.425000X0.625000X0.425000X-0.625000X0.425000X-0.625000X-0.425000X0*%
G04 #@! TD*
G04 #@! TA.AperFunction,SMDPad,CuDef*
%ADD12RoundRect,0.100000X0.525000X0.525000X-0.525000X0.525000X-0.525000X-0.525000X0.525000X-0.525000X0*%
G04 #@! TD*
G04 #@! TA.AperFunction,SMDPad,CuDef*
%ADD13RoundRect,0.090244X0.372256X0.734756X-0.372256X0.734756X-0.372256X-0.734756X0.372256X-0.734756X0*%
G04 #@! TD*
G04 #@! TA.AperFunction,SMDPad,CuDef*
%ADD14RoundRect,0.085366X0.352134X0.739634X-0.352134X0.739634X-0.352134X-0.739634X0.352134X-0.739634X0*%
G04 #@! TD*
G04 #@! TA.AperFunction,SMDPad,CuDef*
%ADD15RoundRect,0.100000X-0.412500X-0.725000X0.412500X-0.725000X0.412500X0.725000X-0.412500X0.725000X0*%
G04 #@! TD*
G04 #@! TA.AperFunction,SMDPad,CuDef*
%ADD16RoundRect,0.078049X-0.321951X-0.696951X0.321951X-0.696951X0.321951X0.696951X-0.321951X0.696951X0*%
G04 #@! TD*
G04 #@! TA.AperFunction,SMDPad,CuDef*
%ADD17RoundRect,0.100000X-0.725000X0.412500X-0.725000X-0.412500X0.725000X-0.412500X0.725000X0.412500X0*%
G04 #@! TD*
G04 #@! TA.AperFunction,SMDPad,CuDef*
%ADD18RoundRect,0.100000X0.412500X0.625000X-0.412500X0.625000X-0.412500X-0.625000X0.412500X-0.625000X0*%
G04 #@! TD*
G04 #@! TA.AperFunction,SMDPad,CuDef*
%ADD19RoundRect,0.095305X0.412195X0.554695X-0.412195X0.554695X-0.412195X-0.554695X0.412195X-0.554695X0*%
G04 #@! TD*
G04 #@! TA.AperFunction,SMDPad,CuDef*
%ADD20RoundRect,0.100000X-0.525000X-0.525000X0.525000X-0.525000X0.525000X0.525000X-0.525000X0.525000X0*%
G04 #@! TD*
G04 #@! TA.AperFunction,SMDPad,CuDef*
%ADD21R,1.475000X1.100000*%
G04 #@! TD*
G04 #@! TA.AperFunction,SMDPad,CuDef*
%ADD22R,1.500000X1.750000*%
G04 #@! TD*
G04 #@! TA.AperFunction,SMDPad,CuDef*
%ADD23R,1.350000X1.100000*%
G04 #@! TD*
G04 #@! TA.AperFunction,SMDPad,CuDef*
%ADD24RoundRect,0.100000X-0.412500X-0.575000X0.412500X-0.575000X0.412500X0.575000X-0.412500X0.575000X0*%
G04 #@! TD*
G04 #@! TA.AperFunction,SMDPad,CuDef*
%ADD25RoundRect,0.100000X-0.437500X-0.600000X0.437500X-0.600000X0.437500X0.600000X-0.437500X0.600000X0*%
G04 #@! TD*
G04 #@! TA.AperFunction,SMDPad,CuDef*
%ADD26RoundRect,0.100000X0.425000X-0.675000X0.425000X0.675000X-0.425000X0.675000X-0.425000X-0.675000X0*%
G04 #@! TD*
G04 #@! TA.AperFunction,SMDPad,CuDef*
%ADD27FreePoly0,90.000000*%
G04 #@! TD*
G04 #@! TA.AperFunction,SMDPad,CuDef*
%ADD28RoundRect,0.100000X-0.387500X-0.562500X0.387500X-0.562500X0.387500X0.562500X-0.387500X0.562500X0*%
G04 #@! TD*
G04 #@! TA.AperFunction,SMDPad,CuDef*
%ADD29RoundRect,0.100000X-0.400000X-0.525000X0.400000X-0.525000X0.400000X0.525000X-0.400000X0.525000X0*%
G04 #@! TD*
G04 #@! TA.AperFunction,SMDPad,CuDef*
%ADD30RoundRect,0.100000X0.562500X0.800000X-0.562500X0.800000X-0.562500X-0.800000X0.562500X-0.800000X0*%
G04 #@! TD*
G04 #@! TA.AperFunction,SMDPad,CuDef*
%ADD31RoundRect,0.104878X0.545122X-0.432622X0.545122X0.432622X-0.545122X0.432622X-0.545122X-0.432622X0*%
G04 #@! TD*
G04 #@! TA.AperFunction,SMDPad,CuDef*
%ADD32RoundRect,0.100000X0.650000X-0.412500X0.650000X0.412500X-0.650000X0.412500X-0.650000X-0.412500X0*%
G04 #@! TD*
G04 #@! TA.AperFunction,SMDPad,CuDef*
%ADD33RoundRect,0.100000X0.900000X-1.462500X0.900000X1.462500X-0.900000X1.462500X-0.900000X-1.462500X0*%
G04 #@! TD*
G04 #@! TA.AperFunction,SMDPad,CuDef*
%ADD34RoundRect,0.100000X0.962500X-1.462500X0.962500X1.462500X-0.962500X1.462500X-0.962500X-1.462500X0*%
G04 #@! TD*
G04 #@! TA.AperFunction,SMDPad,CuDef*
%ADD35RoundRect,0.100000X-0.525000X0.525000X-0.525000X-0.525000X0.525000X-0.525000X0.525000X0.525000X0*%
G04 #@! TD*
G04 #@! TA.AperFunction,SMDPad,CuDef*
%ADD36RoundRect,0.100000X0.587500X-0.400000X0.587500X0.400000X-0.587500X0.400000X-0.587500X-0.400000X0*%
G04 #@! TD*
G04 #@! TA.AperFunction,SMDPad,CuDef*
%ADD37RoundRect,0.100000X0.612500X-0.437500X0.612500X0.437500X-0.612500X0.437500X-0.612500X-0.437500X0*%
G04 #@! TD*
G04 #@! TA.AperFunction,SMDPad,CuDef*
%ADD38RoundRect,0.100000X0.437500X0.550000X-0.437500X0.550000X-0.437500X-0.550000X0.437500X-0.550000X0*%
G04 #@! TD*
G04 #@! TA.AperFunction,SMDPad,CuDef*
%ADD39RoundRect,0.100000X0.425000X0.575000X-0.425000X0.575000X-0.425000X-0.575000X0.425000X-0.575000X0*%
G04 #@! TD*
G04 #@! TA.AperFunction,SMDPad,CuDef*
%ADD40RoundRect,0.100000X0.525000X-0.525000X0.525000X0.525000X-0.525000X0.525000X-0.525000X-0.525000X0*%
G04 #@! TD*
G04 #@! TA.AperFunction,SMDPad,CuDef*
%ADD41RoundRect,0.102439X-0.422561X-0.610061X0.422561X-0.610061X0.422561X0.610061X-0.422561X0.610061X0*%
G04 #@! TD*
G04 #@! TA.AperFunction,SMDPad,CuDef*
%ADD42RoundRect,0.097561X-0.402439X-0.589939X0.402439X-0.589939X0.402439X0.589939X-0.402439X0.589939X0*%
G04 #@! TD*
G04 #@! TA.AperFunction,SMDPad,CuDef*
%ADD43RoundRect,0.100000X0.562500X-0.425000X0.562500X0.425000X-0.562500X0.425000X-0.562500X-0.425000X0*%
G04 #@! TD*
G04 #@! TA.AperFunction,SMDPad,CuDef*
%ADD44RoundRect,0.100000X0.612500X-0.425000X0.612500X0.425000X-0.612500X0.425000X-0.612500X-0.425000X0*%
G04 #@! TD*
G04 #@! TA.AperFunction,SMDPad,CuDef*
%ADD45RoundRect,0.100000X-0.575000X0.412500X-0.575000X-0.412500X0.575000X-0.412500X0.575000X0.412500X0*%
G04 #@! TD*
G04 #@! TA.AperFunction,SMDPad,CuDef*
%ADD46RoundRect,0.100000X-0.575000X0.437500X-0.575000X-0.437500X0.575000X-0.437500X0.575000X0.437500X0*%
G04 #@! TD*
G04 #@! TA.AperFunction,SMDPad,CuDef*
%ADD47RoundRect,0.100000X0.562500X-0.412500X0.562500X0.412500X-0.562500X0.412500X-0.562500X-0.412500X0*%
G04 #@! TD*
G04 #@! TA.AperFunction,SMDPad,CuDef*
%ADD48RoundRect,0.100000X0.425000X0.625000X-0.425000X0.625000X-0.425000X-0.625000X0.425000X-0.625000X0*%
G04 #@! TD*
G04 #@! TA.AperFunction,SMDPad,CuDef*
%ADD49RoundRect,0.100000X0.412500X0.587500X-0.412500X0.587500X-0.412500X-0.587500X0.412500X-0.587500X0*%
G04 #@! TD*
G04 #@! TA.AperFunction,SMDPad,CuDef*
%ADD50RoundRect,0.100000X0.600000X-0.412500X0.600000X0.412500X-0.600000X0.412500X-0.600000X-0.412500X0*%
G04 #@! TD*
G04 #@! TA.AperFunction,SMDPad,CuDef*
%ADD51RoundRect,0.100000X0.537500X-0.400000X0.537500X0.400000X-0.537500X0.400000X-0.537500X-0.400000X0*%
G04 #@! TD*
G04 #@! TA.AperFunction,SMDPad,CuDef*
%ADD52RoundRect,0.100000X-0.425000X-0.587500X0.425000X-0.587500X0.425000X0.587500X-0.425000X0.587500X0*%
G04 #@! TD*
G04 #@! TA.AperFunction,SMDPad,CuDef*
%ADD53RoundRect,0.100000X0.412500X0.725000X-0.412500X0.725000X-0.412500X-0.725000X0.412500X-0.725000X0*%
G04 #@! TD*
G04 #@! TA.AperFunction,SMDPad,CuDef*
%ADD54RoundRect,0.100000X0.662500X0.250000X-0.662500X0.250000X-0.662500X-0.250000X0.662500X-0.250000X0*%
G04 #@! TD*
G04 #@! TA.AperFunction,SMDPad,CuDef*
%ADD55RoundRect,0.092683X-0.382317X-0.644817X0.382317X-0.644817X0.382317X0.644817X-0.382317X0.644817X0*%
G04 #@! TD*
G04 #@! TA.AperFunction,SMDPad,CuDef*
%ADD56R,2.000000X2.350000*%
G04 #@! TD*
G04 #@! TA.AperFunction,SMDPad,CuDef*
%ADD57RoundRect,0.100000X0.575000X-0.425000X0.575000X0.425000X-0.575000X0.425000X-0.575000X-0.425000X0*%
G04 #@! TD*
G04 #@! TA.AperFunction,SMDPad,CuDef*
%ADD58RoundRect,0.100000X0.625000X-0.437500X0.625000X0.437500X-0.625000X0.437500X-0.625000X-0.437500X0*%
G04 #@! TD*
G04 #@! TA.AperFunction,SMDPad,CuDef*
%ADD59RoundRect,0.102439X0.610061X-0.422561X0.610061X0.422561X-0.610061X0.422561X-0.610061X-0.422561X0*%
G04 #@! TD*
G04 #@! TA.AperFunction,SMDPad,CuDef*
%ADD60RoundRect,0.100000X0.725000X-0.412500X0.725000X0.412500X-0.725000X0.412500X-0.725000X-0.412500X0*%
G04 #@! TD*
G04 #@! TA.AperFunction,SMDPad,CuDef*
%ADD61RoundRect,0.100000X-0.400000X-0.625000X0.400000X-0.625000X0.400000X0.625000X-0.400000X0.625000X0*%
G04 #@! TD*
G04 #@! TA.AperFunction,SMDPad,CuDef*
%ADD62RoundRect,0.100000X-0.612500X0.400000X-0.612500X-0.400000X0.612500X-0.400000X0.612500X0.400000X0*%
G04 #@! TD*
G04 #@! TA.AperFunction,SMDPad,CuDef*
%ADD63RoundRect,0.100000X-1.300000X-0.975000X1.300000X-0.975000X1.300000X0.975000X-1.300000X0.975000X0*%
G04 #@! TD*
G04 #@! TA.AperFunction,SMDPad,CuDef*
%ADD64RoundRect,0.100000X-1.525000X-0.975000X1.525000X-0.975000X1.525000X0.975000X-1.525000X0.975000X0*%
G04 #@! TD*
G04 #@! TA.AperFunction,SMDPad,CuDef*
%ADD65RoundRect,0.097561X-0.402439X-0.727439X0.402439X-0.727439X0.402439X0.727439X-0.402439X0.727439X0*%
G04 #@! TD*
G04 #@! TA.AperFunction,SMDPad,CuDef*
%ADD66RoundRect,0.100000X-0.412500X-0.650000X0.412500X-0.650000X0.412500X0.650000X-0.412500X0.650000X0*%
G04 #@! TD*
G04 #@! TA.AperFunction,SMDPad,CuDef*
%ADD67RoundRect,0.100000X-0.562500X0.425000X-0.562500X-0.425000X0.562500X-0.425000X0.562500X0.425000X0*%
G04 #@! TD*
G04 #@! TA.AperFunction,SMDPad,CuDef*
%ADD68RoundRect,0.100000X-0.612500X0.412500X-0.612500X-0.412500X0.612500X-0.412500X0.612500X0.412500X0*%
G04 #@! TD*
G04 #@! TA.AperFunction,Conductor*
%ADD69C,0.200000*%
G04 #@! TD*
G04 APERTURE END LIST*
D10*
G04 #@! TO.P,R14,1*
G04 #@! TO.N,Net-(U1-DET)*
X125300000Y-70750000D03*
D11*
G04 #@! TO.P,R14,2*
G04 #@! TO.N,Net-(C7-Pad1)*
X125350000Y-68687500D03*
G04 #@! TD*
D12*
G04 #@! TO.P,Q3,1,E*
G04 #@! TO.N,Net-(Q3-E)*
X109650000Y-93425000D03*
G04 #@! TO.P,Q3,2,B*
G04 #@! TO.N,Net-(Q3-B)*
X109650000Y-95325000D03*
G04 #@! TO.P,Q3,3,C*
G04 #@! TO.N,/{slash}PFW*
X107150000Y-94375000D03*
G04 #@! TD*
D13*
G04 #@! TO.P,R12,1*
G04 #@! TO.N,+12V*
X115062500Y-85525000D03*
D14*
G04 #@! TO.P,R12,2*
G04 #@! TO.N,Net-(R11-Pad2)*
X112912500Y-85525000D03*
G04 #@! TD*
D15*
G04 #@! TO.P,R16,1*
G04 #@! TO.N,Net-(Q3-B)*
X103337500Y-83600000D03*
G04 #@! TO.P,R16,2*
G04 #@! TO.N,GND*
X105337500Y-83600000D03*
G04 #@! TD*
G04 #@! TO.P,C11,1*
G04 #@! TO.N,/RESET_FEEDBACK*
X102350000Y-88525000D03*
G04 #@! TO.P,C11,2*
G04 #@! TO.N,GND*
X104350000Y-88525000D03*
G04 #@! TD*
D16*
G04 #@! TO.P,R7,1*
G04 #@! TO.N,Net-(D5-K)*
X104762500Y-90550000D03*
D15*
G04 #@! TO.P,R7,2*
G04 #@! TO.N,Net-(Q2-B)*
X106912500Y-90500000D03*
G04 #@! TD*
D17*
G04 #@! TO.P,R11,1*
G04 #@! TO.N,Net-(R11-Pad1)*
X108325000Y-66812500D03*
G04 #@! TO.P,R11,2*
G04 #@! TO.N,Net-(R11-Pad2)*
X108325000Y-68812500D03*
G04 #@! TD*
D18*
G04 #@! TO.P,R2,1*
G04 #@! TO.N,GND*
X117437500Y-81925000D03*
D19*
G04 #@! TO.P,R2,2*
G04 #@! TO.N,Net-(U1-T-OFF)*
X115477500Y-81900000D03*
G04 #@! TD*
D20*
G04 #@! TO.P,D2,*
G04 #@! TO.N,Net-(D1-K)*
X112625000Y-89300000D03*
G04 #@! TO.P,D2,1,K*
G04 #@! TO.N,+12V*
X115125000Y-88350000D03*
G04 #@! TO.P,D2,2,A*
G04 #@! TO.N,Net-(D2-A)*
X112625000Y-87400000D03*
G04 #@! TD*
D21*
G04 #@! TO.P,RV1,1,1*
G04 #@! TO.N,Net-(R11-Pad1)*
X116250000Y-67350000D03*
D22*
G04 #@! TO.P,RV1,2,2*
G04 #@! TO.N,GND*
X113275000Y-66400000D03*
D23*
G04 #@! TO.P,RV1,3,3*
X116225000Y-65350000D03*
G04 #@! TD*
D24*
G04 #@! TO.P,C1,1*
G04 #@! TO.N,Net-(U1-CF)*
X115450000Y-80150000D03*
D25*
G04 #@! TO.P,C1,2*
G04 #@! TO.N,GND*
X117500000Y-80175000D03*
G04 #@! TD*
D26*
G04 #@! TO.P,U2,1,SUPPLY*
G04 #@! TO.N,/RESET_FEEDBACK*
X102350000Y-72550000D03*
D27*
G04 #@! TO.P,U2,2,GND*
G04 #@! TO.N,GND*
X103850000Y-69993750D03*
D26*
G04 #@! TO.P,U2,3,OUTPUT*
G04 #@! TO.N,Net-(Q4-B)*
X105350000Y-72550000D03*
G04 #@! TD*
D28*
G04 #@! TO.P,R3,1*
G04 #@! TO.N,+5V*
X122675000Y-66300000D03*
D29*
G04 #@! TO.P,R3,2*
G04 #@! TO.N,Net-(U1-VF)*
X124700000Y-66300000D03*
G04 #@! TD*
D30*
G04 #@! TO.P,C4,1*
G04 #@! TO.N,Net-(Q2-B)*
X108175000Y-85675000D03*
G04 #@! TO.P,C4,2*
G04 #@! TO.N,GND*
X105025000Y-85675000D03*
G04 #@! TD*
D31*
G04 #@! TO.P,R5,1*
G04 #@! TO.N,Net-(D2-A)*
X115850000Y-72075000D03*
D32*
G04 #@! TO.P,R5,2*
G04 #@! TO.N,Net-(U1-OVP)*
X115950000Y-70025000D03*
G04 #@! TD*
D33*
G04 #@! TO.P,C10,1*
G04 #@! TO.N,Net-(Q3-B)*
X103875000Y-80825000D03*
D34*
G04 #@! TO.P,C10,2*
G04 #@! TO.N,GND*
X103875000Y-75350000D03*
G04 #@! TD*
D35*
G04 #@! TO.P,Q1,1,E*
G04 #@! TO.N,+5V*
X108450000Y-74000000D03*
G04 #@! TO.P,Q1,2,B*
G04 #@! TO.N,Net-(D1-K)*
X110350000Y-74000000D03*
G04 #@! TO.P,Q1,3,C*
G04 #@! TO.N,Net-(Q1-C)*
X109400000Y-76500000D03*
G04 #@! TD*
D36*
G04 #@! TO.P,C2,1*
G04 #@! TO.N,Net-(U1-VF)*
X126300000Y-67200000D03*
D37*
G04 #@! TO.P,C2,2*
G04 #@! TO.N,GND*
X126325000Y-65150000D03*
G04 #@! TD*
D38*
G04 #@! TO.P,R1,1*
G04 #@! TO.N,GND*
X120475000Y-72650000D03*
D39*
G04 #@! TO.P,R1,2*
G04 #@! TO.N,Net-(U1-T-ON)*
X118475000Y-72675000D03*
G04 #@! TD*
D40*
G04 #@! TO.P,D5,*
G04 #@! TO.N,/{slash}PFW*
X105400000Y-94825000D03*
G04 #@! TO.P,D5,1,K*
G04 #@! TO.N,Net-(D5-K)*
X104450000Y-92325000D03*
G04 #@! TO.P,D5,2,A*
G04 #@! TO.N,/{slash}PFW*
X103500000Y-94825000D03*
G04 #@! TD*
D41*
G04 #@! TO.P,R22,1*
G04 #@! TO.N,Net-(R11-Pad2)*
X119950000Y-68950000D03*
D42*
G04 #@! TO.P,R22,2*
G04 #@! TO.N,Net-(U1-DET)*
X121950000Y-68850000D03*
G04 #@! TD*
D43*
G04 #@! TO.P,R10,1*
G04 #@! TO.N,/CLM_CIRCUIT*
X122075000Y-95987500D03*
D44*
G04 #@! TO.P,R10,2*
G04 #@! TO.N,Net-(U1-CLM-)*
X122075000Y-93887500D03*
G04 #@! TD*
D35*
G04 #@! TO.P,D4,*
G04 #@! TO.N,Net-(D3-A)*
X112200000Y-73900000D03*
G04 #@! TO.P,D4,1,K*
G04 #@! TO.N,Net-(D2-A)*
X113150000Y-76400000D03*
G04 #@! TO.P,D4,2,A*
G04 #@! TO.N,Net-(D3-A)*
X114100000Y-73900000D03*
G04 #@! TD*
D45*
G04 #@! TO.P,C7,1*
G04 #@! TO.N,Net-(C7-Pad1)*
X127000000Y-68675000D03*
D46*
G04 #@! TO.P,C7,2*
G04 #@! TO.N,Net-(U1-F{slash}B)*
X127100000Y-70750000D03*
G04 #@! TD*
D17*
G04 #@! TO.P,R17,1*
G04 #@! TO.N,+5V*
X107025000Y-70325000D03*
G04 #@! TO.P,R17,2*
G04 #@! TO.N,Net-(Q4-B)*
X107025000Y-72325000D03*
G04 #@! TD*
D47*
G04 #@! TO.P,R21,1*
G04 #@! TO.N,GND*
X127300000Y-95925000D03*
G04 #@! TO.P,R21,2*
X127250000Y-93925000D03*
G04 #@! TD*
D48*
G04 #@! TO.P,C3,1*
G04 #@! TO.N,Net-(U1-OVP)*
X123925000Y-72575000D03*
D49*
G04 #@! TO.P,C3,2*
G04 #@! TO.N,GND*
X121875000Y-72650000D03*
G04 #@! TD*
D50*
G04 #@! TO.P,C6,1*
G04 #@! TO.N,Net-(U1-DET)*
X123625000Y-69975000D03*
D51*
G04 #@! TO.P,C6,2*
G04 #@! TO.N,GND*
X123525000Y-67975000D03*
G04 #@! TD*
D25*
G04 #@! TO.P,C8,1*
G04 #@! TO.N,Net-(U1-DET)*
X125400000Y-72400000D03*
D52*
G04 #@! TO.P,C8,2*
G04 #@! TO.N,Net-(U1-F{slash}B)*
X127400000Y-72350000D03*
G04 #@! TD*
D18*
G04 #@! TO.P,R18,1*
G04 #@! TO.N,Net-(Q4-B)*
X107825000Y-87750000D03*
D53*
G04 #@! TO.P,R18,2*
G04 #@! TO.N,GND*
X105825000Y-87825000D03*
G04 #@! TD*
D54*
G04 #@! TO.P,U1,1,COLLECTOR*
G04 #@! TO.N,+12V_ALWAYS_ON*
X126825000Y-85490000D03*
G04 #@! TO.P,U1,2,VOUT*
G04 #@! TO.N,/VOUT*
X126825000Y-84220000D03*
G04 #@! TO.P,U1,3,EMITTER*
G04 #@! TO.N,GND*
X126825000Y-82950000D03*
G04 #@! TO.P,U1,4,VF*
G04 #@! TO.N,Net-(U1-VF)*
X126825000Y-81680000D03*
G04 #@! TO.P,U1,5,GND*
G04 #@! TO.N,GND*
X126825000Y-80410000D03*
G04 #@! TO.P,U1,6,GND*
X126825000Y-79140000D03*
G04 #@! TO.P,U1,7,ON/OFF*
G04 #@! TO.N,Net-(Q2-C)*
X126825000Y-77870000D03*
G04 #@! TO.P,U1,8,OVP*
G04 #@! TO.N,Net-(U1-OVP)*
X126825000Y-76600000D03*
G04 #@! TO.P,U1,9,DET*
G04 #@! TO.N,Net-(U1-DET)*
X126825000Y-75330000D03*
G04 #@! TO.P,U1,10,F/B*
G04 #@! TO.N,Net-(U1-F{slash}B)*
X126825000Y-74060000D03*
G04 #@! TO.P,U1,11,T-ON*
G04 #@! TO.N,Net-(U1-T-ON)*
X119100000Y-74060000D03*
G04 #@! TO.P,U1,12,CF*
G04 #@! TO.N,Net-(U1-CF)*
X119100000Y-75330000D03*
G04 #@! TO.P,U1,13,T-OFF*
G04 #@! TO.N,Net-(U1-T-OFF)*
X119100000Y-76600000D03*
G04 #@! TO.P,U1,14,CT*
G04 #@! TO.N,GND*
X119100000Y-77870000D03*
G04 #@! TO.P,U1,15,GND*
X119100000Y-79140000D03*
G04 #@! TO.P,U1,16,GND*
X119100000Y-80410000D03*
G04 #@! TO.P,U1,17,GND*
X119100000Y-81680000D03*
G04 #@! TO.P,U1,18,CLM-*
G04 #@! TO.N,Net-(U1-CLM-)*
X119100000Y-82950000D03*
G04 #@! TO.P,U1,19,CLM+*
G04 #@! TO.N,GND*
X119100000Y-84220000D03*
G04 #@! TO.P,U1,20,VCC*
G04 #@! TO.N,+12V_ALWAYS_ON*
X119100000Y-85490000D03*
G04 #@! TD*
D55*
G04 #@! TO.P,R4,1*
G04 #@! TO.N,Net-(Q1-C)*
X110262500Y-78300000D03*
D15*
G04 #@! TO.P,R4,2*
G04 #@! TO.N,Net-(D2-A)*
X112262500Y-78300000D03*
G04 #@! TD*
D56*
G04 #@! TO.P,J1,1,Pin_1*
G04 #@! TO.N,+5V*
X104000000Y-98425000D03*
G04 #@! TO.P,J1,2,Pin_2*
G04 #@! TO.N,/RESET_FEEDBACK*
X106500000Y-98425000D03*
G04 #@! TO.P,J1,3,Pin_3*
G04 #@! TO.N,/{slash}PFW*
X109000000Y-98425000D03*
G04 #@! TO.P,J1,4,Pin_4*
G04 #@! TO.N,+5V_ALWAYS_ON*
X111500000Y-98425000D03*
G04 #@! TO.P,J1,5,Pin_5*
G04 #@! TO.N,-12V*
X114000000Y-98425000D03*
G04 #@! TO.P,J1,6,Pin_6*
G04 #@! TO.N,+12V*
X116500000Y-98425000D03*
G04 #@! TO.P,J1,7,Pin_7*
G04 #@! TO.N,+12V_ALWAYS_ON*
X119000000Y-98425000D03*
G04 #@! TO.P,J1,8,Pin_8*
G04 #@! TO.N,/CLM_CIRCUIT*
X121500000Y-98425000D03*
G04 #@! TO.P,J1,9,Pin_9*
G04 #@! TO.N,GND*
X124000000Y-98425000D03*
G04 #@! TO.P,J1,10,Pin_10*
G04 #@! TO.N,/VOUT*
X126500000Y-98425000D03*
G04 #@! TD*
D57*
G04 #@! TO.P,R20,1*
G04 #@! TO.N,GND*
X128175000Y-67125000D03*
G04 #@! TO.P,R20,2*
X128175000Y-65125000D03*
G04 #@! TD*
D58*
G04 #@! TO.P,R9,1*
G04 #@! TO.N,GND*
X123850000Y-95912500D03*
D59*
G04 #@! TO.P,R9,2*
G04 #@! TO.N,Net-(U1-CLM-)*
X123850000Y-93912500D03*
G04 #@! TD*
D20*
G04 #@! TO.P,D6,*
G04 #@! TO.N,+12V*
X116325000Y-95800000D03*
G04 #@! TO.P,D6,1,K*
G04 #@! TO.N,+12V_ALWAYS_ON*
X118825000Y-94850000D03*
G04 #@! TO.P,D6,2,A*
G04 #@! TO.N,+12V*
X116325000Y-93900000D03*
G04 #@! TD*
D60*
G04 #@! TO.P,R19,1*
G04 #@! TO.N,GND*
X102650000Y-67312500D03*
G04 #@! TO.P,R19,2*
X102650000Y-65312500D03*
G04 #@! TD*
D17*
G04 #@! TO.P,R13,1*
G04 #@! TO.N,+5V*
X110275000Y-68337500D03*
G04 #@! TO.P,R13,2*
G04 #@! TO.N,Net-(R11-Pad2)*
X110275000Y-70337500D03*
G04 #@! TD*
D40*
G04 #@! TO.P,D3,*
G04 #@! TO.N,Net-(D3-A)*
X114100000Y-72175000D03*
G04 #@! TO.P,D3,1,K*
G04 #@! TO.N,+5V*
X113150000Y-69675000D03*
G04 #@! TO.P,D3,2,A*
G04 #@! TO.N,Net-(D3-A)*
X112200000Y-72175000D03*
G04 #@! TD*
D61*
G04 #@! TO.P,R15,1*
G04 #@! TO.N,+5V*
X101350000Y-90575000D03*
G04 #@! TO.P,R15,2*
G04 #@! TO.N,Net-(Q3-B)*
X103350000Y-90575000D03*
G04 #@! TD*
D62*
G04 #@! TO.P,R6,1*
G04 #@! TO.N,GND*
X119200000Y-65200000D03*
G04 #@! TO.P,R6,2*
G04 #@! TO.N,Net-(U1-OVP)*
X119125000Y-67225000D03*
G04 #@! TD*
D63*
G04 #@! TO.P,C9,1*
G04 #@! TO.N,+12V_ALWAYS_ON*
X118050000Y-89500000D03*
D64*
G04 #@! TO.P,C9,2*
G04 #@! TO.N,GND*
X123350000Y-89500000D03*
G04 #@! TD*
D35*
G04 #@! TO.P,Q4,1,E*
G04 #@! TO.N,GND*
X108225000Y-80725000D03*
G04 #@! TO.P,Q4,2,B*
G04 #@! TO.N,Net-(Q4-B)*
X110125000Y-80725000D03*
G04 #@! TO.P,Q4,3,C*
G04 #@! TO.N,Net-(Q3-E)*
X109175000Y-83225000D03*
G04 #@! TD*
D65*
G04 #@! TO.P,R8,1*
G04 #@! TO.N,+5V_ALWAYS_ON*
X112250000Y-95500000D03*
D66*
G04 #@! TO.P,R8,2*
G04 #@! TO.N,Net-(Q2-C)*
X114237500Y-95400000D03*
G04 #@! TD*
D20*
G04 #@! TO.P,Q2,1,E*
G04 #@! TO.N,GND*
X108400000Y-91550000D03*
G04 #@! TO.P,Q2,2,B*
G04 #@! TO.N,Net-(Q2-B)*
X108400000Y-89650000D03*
G04 #@! TO.P,Q2,3,C*
G04 #@! TO.N,Net-(Q2-C)*
X110900000Y-90600000D03*
G04 #@! TD*
D40*
G04 #@! TO.P,D1,*
G04 #@! TO.N,Net-(Q2-C)*
X114575000Y-93600000D03*
G04 #@! TO.P,D1,1,K*
G04 #@! TO.N,Net-(D1-K)*
X113625000Y-91100000D03*
G04 #@! TO.P,D1,2,A*
G04 #@! TO.N,-12V*
X112675000Y-93600000D03*
G04 #@! TD*
D67*
G04 #@! TO.P,C5,1*
G04 #@! TO.N,Net-(U1-CLM-)*
X125550000Y-93900000D03*
D68*
G04 #@! TO.P,C5,2*
G04 #@! TO.N,GND*
X125600000Y-95900000D03*
G04 #@! TD*
D69*
G04 #@! TO.N,GND*
X123350000Y-89500000D02*
X123328887Y-81625000D01*
X125600000Y-95900000D02*
X123850000Y-95912500D01*
X123525000Y-67975000D02*
X123675000Y-67175000D01*
X104350000Y-88525000D02*
X105825000Y-87825000D01*
X113275000Y-66400000D02*
X113600000Y-65475000D01*
X102650000Y-67312500D02*
X103850000Y-69993750D01*
X126925000Y-91200000D02*
X125325000Y-89200000D01*
X117325000Y-83875000D02*
X117437500Y-81925000D01*
X103850000Y-69993750D02*
X103875000Y-75350000D01*
X125300000Y-64975000D02*
X126325000Y-65150000D01*
X119200000Y-65200000D02*
X123625000Y-65050000D01*
X120475000Y-72650000D02*
X121875000Y-72650000D01*
X119100000Y-77870000D02*
X123100000Y-79200000D01*
X107125000Y-80925000D02*
X108225000Y-80725000D01*
X123328887Y-81625000D02*
X123325000Y-80175000D01*
X127250000Y-93925000D02*
X126925000Y-91200000D01*
X126825000Y-79140000D02*
X128475000Y-78925000D01*
X120475000Y-72650000D02*
X123100000Y-79200000D01*
X119100000Y-79140000D02*
X123100000Y-79200000D01*
X128525000Y-68125000D02*
X128175000Y-67125000D01*
X125100000Y-82975000D02*
X125325000Y-89200000D01*
X123325000Y-80175000D02*
X126825000Y-80410000D01*
X123100000Y-79200000D02*
X123325000Y-80175000D01*
X117437500Y-81925000D02*
X119100000Y-81680000D01*
X105337500Y-83600000D02*
X105025000Y-85675000D01*
X105025000Y-85675000D02*
X105825000Y-87825000D01*
X105825000Y-87825000D02*
X105925000Y-91925000D01*
X117500000Y-80175000D02*
X119100000Y-80410000D01*
X105925000Y-91925000D02*
X107550000Y-92000000D01*
X107550000Y-92000000D02*
X108400000Y-91550000D01*
X126825000Y-82950000D02*
X125100000Y-82975000D01*
X113225000Y-65150000D02*
X113275000Y-66400000D01*
X119100000Y-81680000D02*
X123328887Y-81625000D01*
X102650000Y-65312500D02*
X113225000Y-65150000D01*
X105337500Y-83600000D02*
X107125000Y-80925000D01*
X123675000Y-67175000D02*
X123625000Y-65050000D01*
X116225000Y-65350000D02*
X119200000Y-65200000D01*
X123625000Y-65050000D02*
X125300000Y-64975000D01*
X113600000Y-65475000D02*
X116225000Y-65350000D01*
X126325000Y-65150000D02*
X128175000Y-65125000D01*
X119100000Y-80410000D02*
X123325000Y-80175000D01*
X128475000Y-78925000D02*
X128525000Y-68125000D01*
X124000000Y-98425000D02*
X123850000Y-95912500D01*
X125325000Y-89200000D02*
X123350000Y-89500000D01*
X127300000Y-95925000D02*
X125600000Y-95900000D01*
X103875000Y-75350000D02*
X108225000Y-80725000D01*
X126825000Y-79140000D02*
X123325000Y-80175000D01*
X119100000Y-84220000D02*
X117325000Y-83875000D01*
G04 #@! TO.N,Net-(U1-CF)*
X115450000Y-80150000D02*
X115475000Y-79125000D01*
X115475000Y-79125000D02*
X118100000Y-75425000D01*
X118100000Y-75425000D02*
X119100000Y-75330000D01*
G04 #@! TO.N,Net-(U1-VF)*
X129441803Y-66800000D02*
X129000000Y-66225000D01*
X124700000Y-66300000D02*
X126200000Y-66200000D01*
X126200000Y-66200000D02*
X126218315Y-66181685D01*
X129441803Y-81425000D02*
X128975000Y-81575000D01*
X129441803Y-66800000D02*
X129441803Y-81425000D01*
X129000000Y-66225000D02*
X126200000Y-66200000D01*
X124700000Y-66300000D02*
X126300000Y-67200000D01*
X128975000Y-81575000D02*
X126825000Y-81680000D01*
G04 #@! TO.N,Net-(U1-OVP)*
X126825000Y-76600000D02*
X125550000Y-76475000D01*
X115950000Y-70025000D02*
X117125000Y-69875000D01*
X119125000Y-67225000D02*
X120950000Y-67225000D01*
X123775000Y-71400000D02*
X123925000Y-72575000D01*
X125550000Y-76475000D02*
X123875000Y-74300000D01*
X123025000Y-71050000D02*
X123775000Y-71400000D01*
X120950000Y-67225000D02*
X120975000Y-70450000D01*
X117125000Y-69875000D02*
X118675000Y-68400000D01*
X120975000Y-70450000D02*
X122075000Y-70475000D01*
X122075000Y-70475000D02*
X123025000Y-71050000D01*
X118675000Y-68400000D02*
X118725000Y-67950000D01*
X118725000Y-67950000D02*
X119125000Y-67225000D01*
X123875000Y-74300000D02*
X123925000Y-72575000D01*
G04 #@! TO.N,Net-(Q2-B)*
X108175000Y-85675000D02*
X109025000Y-86550000D01*
X106912500Y-90500000D02*
X108400000Y-89650000D01*
X109025000Y-86550000D02*
X109050000Y-88775000D01*
X109050000Y-88775000D02*
X108400000Y-89650000D01*
G04 #@! TO.N,Net-(U1-CLM-)*
X122025000Y-92500000D02*
X120950000Y-90050000D01*
X120950000Y-90050000D02*
X120850000Y-82950000D01*
X123850000Y-93912500D02*
X125550000Y-93900000D01*
X120850000Y-82950000D02*
X119100000Y-82950000D01*
X122075000Y-93887500D02*
X122025000Y-92500000D01*
X122075000Y-93887500D02*
X123850000Y-93912500D01*
G04 #@! TO.N,Net-(R11-Pad2)*
X110275000Y-70337500D02*
X111750000Y-70600000D01*
X116925000Y-71025000D02*
X117150000Y-71025000D01*
X108325000Y-68812500D02*
X110275000Y-70337500D01*
X114850000Y-70950000D02*
X115125000Y-71025000D01*
X116875000Y-74175000D02*
X116925000Y-71025000D01*
X112912500Y-85525000D02*
X112875000Y-82825000D01*
X112875000Y-82825000D02*
X113450000Y-81725000D01*
X111750000Y-70600000D02*
X112350000Y-70925000D01*
X113500000Y-78900000D02*
X116875000Y-74175000D01*
X113450000Y-81725000D02*
X113500000Y-78900000D01*
X117150000Y-71025000D02*
X119950000Y-68950000D01*
X112350000Y-70925000D02*
X114850000Y-70950000D01*
X115125000Y-71025000D02*
X116925000Y-71025000D01*
G04 #@! TO.N,Net-(C7-Pad1)*
X125350000Y-68687500D02*
X127000000Y-68675000D01*
G04 #@! TO.N,+12V_ALWAYS_ON*
X119150000Y-87800000D02*
X119100000Y-85490000D01*
X128675000Y-94925000D02*
X120400000Y-94925000D01*
X118825000Y-94850000D02*
X118600000Y-92880000D01*
X118600000Y-92880000D02*
X117510000Y-91310000D01*
X128600000Y-85475000D02*
X128675000Y-94925000D01*
X120250000Y-92600000D02*
X118050000Y-89500000D01*
X118050000Y-89500000D02*
X119150000Y-87800000D01*
X117510000Y-91310000D02*
X118050000Y-89500000D01*
X120400000Y-94925000D02*
X120300000Y-94925000D01*
X126825000Y-85490000D02*
X128600000Y-85475000D01*
X118975000Y-96450000D02*
X120400000Y-94925000D01*
X119000000Y-98425000D02*
X118975000Y-96450000D01*
X120300000Y-94925000D02*
X120250000Y-92600000D01*
G04 #@! TO.N,Net-(Q3-B)*
X103350000Y-90575000D02*
X103337500Y-83600000D01*
X103450000Y-93625000D02*
X105575000Y-93600000D01*
X103337500Y-83600000D02*
X103875000Y-80825000D01*
X103350000Y-90575000D02*
X103125000Y-91850000D01*
X103125000Y-91850000D02*
X103150000Y-93550000D01*
X105575000Y-93600000D02*
X106000000Y-93025000D01*
X108275000Y-93025000D02*
X108400000Y-93350000D01*
X106000000Y-93025000D02*
X108275000Y-93025000D01*
X108500000Y-95225000D02*
X109650000Y-95325000D01*
X108400000Y-93350000D02*
X108500000Y-95225000D01*
X103150000Y-93550000D02*
X103450000Y-93625000D01*
G04 #@! TO.N,-12V*
X113200000Y-94500000D02*
X112675000Y-93600000D01*
X113225000Y-96375000D02*
X113200000Y-94500000D01*
X114000000Y-98425000D02*
X113225000Y-96375000D01*
G04 #@! TO.N,Net-(D1-K)*
X110900000Y-87500000D02*
X110900000Y-82050000D01*
X111550000Y-79775000D02*
X111300000Y-79325000D01*
X111550000Y-81300000D02*
X111550000Y-79775000D01*
X112550000Y-90700000D02*
X112500000Y-89350000D01*
X111250000Y-76525000D02*
X110350000Y-74000000D01*
X112500000Y-89350000D02*
X111100000Y-88575000D01*
X111100000Y-88575000D02*
X110900000Y-87500000D01*
X113625000Y-91100000D02*
X112550000Y-90700000D01*
X111300000Y-79325000D02*
X111250000Y-76525000D01*
X110900000Y-82050000D02*
X111550000Y-81300000D01*
G04 #@! TO.N,Net-(D2-A)*
X111750000Y-86800000D02*
X112625000Y-87400000D01*
X112300000Y-79500000D02*
X112475000Y-79775000D01*
X111750000Y-82675000D02*
X111750000Y-86800000D01*
X112262500Y-78300000D02*
X113150000Y-76400000D01*
X112262500Y-78300000D02*
X112300000Y-79500000D01*
X112425000Y-81425000D02*
X111750000Y-82675000D01*
X112475000Y-79775000D02*
X112425000Y-81425000D01*
X115850000Y-72075000D02*
X115575000Y-74650000D01*
X114375000Y-76000000D02*
X113150000Y-76400000D01*
X115575000Y-74650000D02*
X114375000Y-76000000D01*
G04 #@! TO.N,+12V*
X116500000Y-98425000D02*
X116325000Y-93900000D01*
X115925000Y-88500000D02*
X115125000Y-88350000D01*
X115975000Y-91900000D02*
X115925000Y-88500000D01*
X116325000Y-93900000D02*
X115975000Y-91900000D01*
X115125000Y-88350000D02*
X115062500Y-85525000D01*
G04 #@! TO.N,+5V*
X108400000Y-70650000D02*
X108750000Y-71400000D01*
X101125000Y-91900000D02*
X101125000Y-98400000D01*
X117725000Y-66500000D02*
X118100000Y-66250000D01*
X106218243Y-67775000D02*
X106125000Y-68350000D01*
X106125000Y-68350000D02*
X106150000Y-69450000D01*
X118100000Y-66250000D02*
X121625000Y-66200000D01*
X117150000Y-68750000D02*
X117650000Y-68350000D01*
X113150000Y-69675000D02*
X114275000Y-69550000D01*
X101050000Y-66700000D02*
X101575000Y-66275000D01*
X108750000Y-71400000D02*
X108450000Y-74000000D01*
X106425000Y-66500000D02*
X106218243Y-67775000D01*
X101150000Y-89200000D02*
X101050000Y-66700000D01*
X107025000Y-70325000D02*
X108400000Y-70650000D01*
X114275000Y-69550000D02*
X115025000Y-68750000D01*
X112175000Y-69425000D02*
X113150000Y-69675000D01*
X117650000Y-68350000D02*
X117725000Y-66500000D01*
X110275000Y-68337500D02*
X109375000Y-67800000D01*
X101125000Y-98400000D02*
X104000000Y-98425000D01*
X111300000Y-68600000D02*
X112175000Y-69425000D01*
X109375000Y-67800000D02*
X106218243Y-67775000D01*
X115025000Y-68750000D02*
X117150000Y-68750000D01*
X101350000Y-90575000D02*
X101125000Y-91900000D01*
X110275000Y-68337500D02*
X111300000Y-68600000D01*
X106150000Y-69450000D02*
X107025000Y-70325000D01*
X101350000Y-90575000D02*
X101150000Y-89200000D01*
X121625000Y-66200000D02*
X122675000Y-66300000D01*
X101575000Y-66275000D02*
X106425000Y-66500000D01*
G04 #@! TO.N,Net-(D3-A)*
X112200000Y-72175000D02*
X114100000Y-73900000D01*
G04 #@! TO.N,Net-(D5-K)*
X104450000Y-92325000D02*
X104762500Y-90550000D01*
G04 #@! TO.N,/{slash}PFW*
X107125000Y-95575000D02*
X107150000Y-94375000D01*
X108800000Y-96850000D02*
X107125000Y-95575000D01*
X109000000Y-98425000D02*
X108800000Y-96850000D01*
X107125000Y-95575000D02*
X103500000Y-94825000D01*
G04 #@! TO.N,/CLM_CIRCUIT*
X121500000Y-98425000D02*
X122075000Y-95987500D01*
G04 #@! TO.N,/RESET_FEEDBACK*
X106450000Y-97025000D02*
X106500000Y-98425000D01*
X102325000Y-91750000D02*
X102150000Y-92150000D01*
X102125000Y-73750000D02*
X102350000Y-88525000D01*
X102350000Y-72550000D02*
X102125000Y-73750000D01*
X102150000Y-92150000D02*
X102200000Y-96200000D01*
X102200000Y-96200000D02*
X105725000Y-96300000D01*
X105725000Y-96300000D02*
X106450000Y-97025000D01*
X102350000Y-88525000D02*
X102325000Y-91750000D01*
G04 #@! TO.N,+5V_ALWAYS_ON*
X111500000Y-98425000D02*
X112250000Y-95500000D01*
G04 #@! TO.N,/VOUT*
X126500000Y-98425000D02*
X129450000Y-97650000D01*
X129450000Y-97650000D02*
X129350000Y-84075000D01*
X129350000Y-84075000D02*
X126825000Y-84220000D01*
G04 #@! TO.N,Net-(Q1-C)*
X109400000Y-76500000D02*
X110262500Y-78300000D01*
G04 #@! TO.N,Net-(Q2-C)*
X114250000Y-82025000D02*
X114225000Y-79325000D01*
X125150000Y-77825000D02*
X126825000Y-77870000D01*
X114575000Y-92375000D02*
X111400000Y-92275000D01*
X121675000Y-71225000D02*
X122125000Y-71475000D01*
X122125000Y-71475000D02*
X122575000Y-71600000D01*
X114950000Y-89775000D02*
X113925000Y-89625000D01*
X110850000Y-91525000D02*
X110900000Y-90600000D01*
X117575000Y-71625000D02*
X117800000Y-71375000D01*
X114000000Y-86500000D02*
X113925000Y-82675000D01*
X114575000Y-92375000D02*
X114950000Y-92050000D01*
X111400000Y-92275000D02*
X110850000Y-91525000D01*
X122575000Y-71600000D02*
X122925000Y-71900000D01*
X122725000Y-74275000D02*
X125150000Y-77825000D01*
X114237500Y-95400000D02*
X114700000Y-94650000D01*
X118250000Y-71200000D02*
X121675000Y-71225000D01*
X122925000Y-71900000D02*
X122925000Y-73750000D01*
X114700000Y-94650000D02*
X114575000Y-92375000D01*
X113925000Y-82675000D02*
X114250000Y-82025000D01*
X114950000Y-92050000D02*
X114950000Y-89775000D01*
X117500000Y-74725000D02*
X117575000Y-71625000D01*
X113875000Y-86850000D02*
X114000000Y-86500000D01*
X113925000Y-89625000D02*
X113875000Y-86850000D01*
X117800000Y-71375000D02*
X118250000Y-71200000D01*
X114225000Y-79325000D02*
X117500000Y-74725000D01*
X122925000Y-73750000D02*
X122725000Y-74275000D01*
G04 #@! TO.N,Net-(Q3-E)*
X109800000Y-85525000D02*
X109775000Y-89400000D01*
X109775000Y-89400000D02*
X109650000Y-90100000D01*
X109175000Y-83225000D02*
X109800000Y-85525000D01*
X109650000Y-90100000D02*
X109650000Y-93425000D01*
G04 #@! TO.N,Net-(Q4-B)*
X106650000Y-84325000D02*
X108125000Y-81900000D01*
X106850000Y-86950000D02*
X106550000Y-86100000D01*
X105350000Y-72550000D02*
X107025000Y-72325000D01*
X106550000Y-86100000D02*
X106650000Y-84325000D01*
X107825000Y-87750000D02*
X106850000Y-86950000D01*
X109450000Y-79725000D02*
X106925000Y-75250000D01*
X109400000Y-81925000D02*
X110125000Y-80725000D01*
X106925000Y-75250000D02*
X107025000Y-72325000D01*
X110125000Y-80725000D02*
X109450000Y-79725000D01*
X108125000Y-81900000D02*
X109400000Y-81925000D01*
G04 #@! TO.N,Net-(U1-T-ON)*
X119100000Y-74060000D02*
X118475000Y-72675000D01*
G04 #@! TO.N,Net-(U1-T-OFF)*
X116450000Y-79225000D02*
X118275000Y-76650000D01*
X118275000Y-76650000D02*
X119100000Y-76600000D01*
X115477500Y-81900000D02*
X116400000Y-81775000D01*
X116400000Y-81775000D02*
X116450000Y-79225000D01*
G04 #@! TO.N,Net-(U1-DET)*
X123625000Y-69975000D02*
X123175000Y-69375000D01*
X126825000Y-75330000D02*
X125725000Y-75200000D01*
X125300000Y-70750000D02*
X124925000Y-70150000D01*
X124925000Y-70150000D02*
X123625000Y-69975000D01*
X125400000Y-72400000D02*
X125300000Y-70750000D01*
X125150000Y-74325000D02*
X125400000Y-72400000D01*
X123175000Y-69375000D02*
X121950000Y-68850000D01*
X125725000Y-75200000D02*
X125150000Y-74325000D01*
G04 #@! TO.N,Net-(R11-Pad1)*
X113875000Y-68150000D02*
X115100000Y-67325000D01*
X108325000Y-66812500D02*
X111575000Y-66800000D01*
X112475000Y-68150000D02*
X113875000Y-68150000D01*
X115100000Y-67325000D02*
X116250000Y-67350000D01*
X111575000Y-66800000D02*
X111825000Y-67600000D01*
X111825000Y-67600000D02*
X112475000Y-68150000D01*
G04 #@! TO.N,Net-(U1-F{slash}B)*
X126825000Y-74060000D02*
X127400000Y-72350000D01*
X127400000Y-72350000D02*
X127100000Y-70750000D01*
G04 #@! TD*
G04 #@! TA.AperFunction,Conductor*
G04 #@! TO.N,Net-(R11-Pad1)*
G36*
X111802008Y-66288504D02*
G01*
X111900640Y-66337820D01*
X111909208Y-66344746D01*
X111916267Y-66347124D01*
X111942012Y-66371265D01*
X111965803Y-66401003D01*
X112009441Y-66455551D01*
X112031842Y-66498947D01*
X112070229Y-66633300D01*
X112075000Y-66667366D01*
X112075000Y-67375000D01*
X112425000Y-67750000D01*
X114125000Y-67750000D01*
X114125001Y-67750000D01*
X114274997Y-67675002D01*
X114274998Y-67675001D01*
X114275000Y-67675000D01*
X114375000Y-67575000D01*
X114425000Y-67375000D01*
X114470657Y-67009737D01*
X114477319Y-66993962D01*
X114478970Y-66978077D01*
X114496868Y-66947664D01*
X114564251Y-66863435D01*
X114588999Y-66840000D01*
X114722232Y-66744834D01*
X114784005Y-66722166D01*
X115044064Y-66700494D01*
X115055953Y-66700077D01*
X116855360Y-66723446D01*
X116922138Y-66744000D01*
X116967204Y-66797394D01*
X116977718Y-66844619D01*
X116999509Y-67803434D01*
X116998799Y-67808141D01*
X116999460Y-67810732D01*
X116993178Y-67845462D01*
X116977925Y-67891222D01*
X116938051Y-67948597D01*
X116873488Y-67975306D01*
X116861697Y-67976003D01*
X114750000Y-68000000D01*
X114749999Y-68000000D01*
X113980979Y-68504670D01*
X113914131Y-68524994D01*
X113912946Y-68525000D01*
X112462544Y-68525000D01*
X112444459Y-68519689D01*
X112425615Y-68519373D01*
X112397188Y-68505809D01*
X112395505Y-68505315D01*
X112393761Y-68504174D01*
X112210215Y-68381810D01*
X112191317Y-68366317D01*
X111978651Y-68153651D01*
X111971672Y-68146067D01*
X111687927Y-67810732D01*
X111150000Y-67175000D01*
X111149999Y-67175000D01*
X108504100Y-67223107D01*
X108436714Y-67204644D01*
X108390007Y-67152680D01*
X108380127Y-67122800D01*
X108253304Y-66470564D01*
X108259831Y-66401003D01*
X108302931Y-66346010D01*
X108368920Y-66323049D01*
X108373245Y-66322912D01*
X111744808Y-66275425D01*
X111802008Y-66288504D01*
G37*
G04 #@! TD.AperFunction*
G04 #@! TD*
G04 #@! TA.AperFunction,Conductor*
G04 #@! TO.N,+12V*
G36*
X115744456Y-84719685D02*
G01*
X115760366Y-84731829D01*
X115933952Y-84888057D01*
X115970613Y-84947534D01*
X115975000Y-84980224D01*
X115975000Y-86200000D01*
X116167555Y-86705456D01*
X116175623Y-86745899D01*
X116224929Y-88397638D01*
X116224979Y-88402398D01*
X116199999Y-91324999D01*
X116224999Y-91824998D01*
X116224999Y-91824999D01*
X116225000Y-91825000D01*
X117446173Y-93265984D01*
X117474498Y-93329855D01*
X117475564Y-93344583D01*
X117515506Y-96500000D01*
X117523411Y-97124430D01*
X117504577Y-97191714D01*
X117452356Y-97238133D01*
X117399421Y-97250000D01*
X115608173Y-97250000D01*
X115595256Y-97246207D01*
X115581826Y-97247169D01*
X115562383Y-97236554D01*
X115541134Y-97230315D01*
X115532318Y-97220140D01*
X115520500Y-97213689D01*
X115509882Y-97194248D01*
X115495379Y-97177511D01*
X115492732Y-97162848D01*
X115487009Y-97152369D01*
X115484488Y-97117166D01*
X115498244Y-96924579D01*
X115511018Y-96877962D01*
X115700000Y-96500000D01*
X115675000Y-89150000D01*
X115525000Y-88975000D01*
X115524999Y-88975000D01*
X114616363Y-88975000D01*
X114608683Y-88972744D01*
X114600781Y-88974017D01*
X114575641Y-88963042D01*
X114549324Y-88955315D01*
X114542446Y-88948551D01*
X114536747Y-88946064D01*
X114513189Y-88919783D01*
X114470826Y-88856239D01*
X114450018Y-88789540D01*
X114450000Y-88787456D01*
X114450000Y-87816333D01*
X114469685Y-87749294D01*
X114474800Y-87741933D01*
X114600000Y-87575000D01*
X114575377Y-84841949D01*
X114581587Y-84820075D01*
X114583231Y-84797393D01*
X114593194Y-84779187D01*
X114594457Y-84774739D01*
X114600163Y-84766448D01*
X114612803Y-84749596D01*
X114668776Y-84707778D01*
X114712000Y-84700000D01*
X115677417Y-84700000D01*
X115744456Y-84719685D01*
G37*
G04 #@! TD.AperFunction*
G04 #@! TD*
G04 #@! TA.AperFunction,Conductor*
G04 #@! TO.N,Net-(Q3-E)*
G36*
X109794089Y-82506363D02*
G01*
X109881483Y-82535494D01*
X109902920Y-82550392D01*
X109926319Y-82561962D01*
X109935114Y-82572766D01*
X109938857Y-82575368D01*
X109948600Y-82589334D01*
X109990505Y-82659176D01*
X110004474Y-82692898D01*
X110046240Y-82859959D01*
X110049941Y-82890505D01*
X110025068Y-89432042D01*
X110019839Y-89467202D01*
X109875001Y-89949996D01*
X109875000Y-89950000D01*
X109849999Y-92024999D01*
X109850000Y-92025000D01*
X110252046Y-92710844D01*
X110257975Y-92720957D01*
X110275000Y-92783666D01*
X110275000Y-93095835D01*
X110255315Y-93162874D01*
X110202511Y-93208629D01*
X110145943Y-93219732D01*
X109168943Y-93179854D01*
X109102762Y-93157452D01*
X109059199Y-93102826D01*
X109050000Y-93055957D01*
X109050000Y-92801636D01*
X109054417Y-92786590D01*
X109053865Y-92770917D01*
X109064061Y-92753749D01*
X109069685Y-92734597D01*
X109082007Y-92723532D01*
X109089544Y-92710844D01*
X109118544Y-92690728D01*
X109192125Y-92653937D01*
X109208345Y-92647218D01*
X109425000Y-92575000D01*
X109425000Y-89512278D01*
X109427408Y-89487960D01*
X109500000Y-89125000D01*
X109500000Y-85525001D01*
X109499998Y-85524994D01*
X109175000Y-84450000D01*
X109075000Y-84325000D01*
X109074999Y-84324999D01*
X109074998Y-84324998D01*
X108950000Y-84250000D01*
X108809598Y-84250000D01*
X108807176Y-84249289D01*
X108804731Y-84249904D01*
X108773833Y-84239498D01*
X108742559Y-84230315D01*
X108740169Y-84228160D01*
X108738516Y-84227604D01*
X108712770Y-84203462D01*
X108566906Y-84021132D01*
X108543436Y-83973744D01*
X108503702Y-83814808D01*
X108500000Y-83784734D01*
X108500000Y-82668497D01*
X108519685Y-82601458D01*
X108527173Y-82591034D01*
X108562771Y-82546537D01*
X108620021Y-82506485D01*
X108659598Y-82500000D01*
X109754877Y-82500000D01*
X109794089Y-82506363D01*
G37*
G04 #@! TD.AperFunction*
G04 #@! TD*
G04 #@! TA.AperFunction,Conductor*
G04 #@! TO.N,Net-(Q2-C)*
G36*
X120938193Y-70954941D02*
G01*
X120945123Y-70955500D01*
X121526268Y-70955500D01*
X121545123Y-70956942D01*
X121805787Y-70997044D01*
X121842384Y-71008692D01*
X122475000Y-71325000D01*
X122478427Y-71325489D01*
X122485281Y-71326469D01*
X122515304Y-71334704D01*
X122523622Y-71338158D01*
X122526793Y-71340176D01*
X122548803Y-71352358D01*
X122576164Y-71365381D01*
X122599498Y-71374782D01*
X122661941Y-71395596D01*
X122666045Y-71397300D01*
X122678435Y-71407303D01*
X122708015Y-71426022D01*
X122894882Y-71621013D01*
X123042585Y-71775138D01*
X123074757Y-71837159D01*
X123077021Y-71857910D01*
X123124590Y-73808200D01*
X123120925Y-73841298D01*
X123075000Y-74024999D01*
X123075000Y-74325000D01*
X123874997Y-75674996D01*
X123874999Y-75674999D01*
X123875000Y-75675000D01*
X125000000Y-77125000D01*
X125000005Y-77125005D01*
X125000006Y-77125007D01*
X125175000Y-77325000D01*
X125175001Y-77325001D01*
X125362498Y-77399999D01*
X125425000Y-77425000D01*
X125974734Y-77449987D01*
X125974996Y-77450077D01*
X125975000Y-77450000D01*
X127436050Y-77519573D01*
X127502075Y-77542424D01*
X127545267Y-77597345D01*
X127554071Y-77639007D01*
X127570309Y-78093652D01*
X127553030Y-78161351D01*
X127501893Y-78208962D01*
X127443602Y-78222047D01*
X126508157Y-78201026D01*
X125350000Y-78175000D01*
X125349987Y-78175000D01*
X125192546Y-78175000D01*
X125170237Y-78168449D01*
X125147077Y-78166363D01*
X125130032Y-78156643D01*
X125125507Y-78155315D01*
X125116417Y-78148880D01*
X124937668Y-78009853D01*
X124915253Y-77987239D01*
X124617460Y-77597345D01*
X122512551Y-74841433D01*
X122493461Y-74805385D01*
X122397140Y-74516421D01*
X122390798Y-74475004D01*
X122395256Y-74225367D01*
X122413801Y-74162320D01*
X122700000Y-73700000D01*
X122775000Y-73575000D01*
X122725000Y-72000000D01*
X122475000Y-71750000D01*
X122144564Y-71716956D01*
X121997704Y-71702270D01*
X121954589Y-71689794D01*
X121575000Y-71499999D01*
X118525000Y-71475000D01*
X118222222Y-71518254D01*
X118213500Y-71519500D01*
X118133078Y-71519500D01*
X118101878Y-71521882D01*
X118064659Y-71527599D01*
X118011289Y-71548386D01*
X118000003Y-71549999D01*
X117999996Y-71550001D01*
X117992639Y-71554205D01*
X117984689Y-71558747D01*
X117981451Y-71560009D01*
X117975487Y-71564005D01*
X117971637Y-71566206D01*
X117971632Y-71566210D01*
X117825000Y-71649999D01*
X117824999Y-71650000D01*
X117700000Y-71849999D01*
X117675316Y-74910707D01*
X117655091Y-74977586D01*
X117652109Y-74981939D01*
X114450000Y-79449999D01*
X114449999Y-79450000D01*
X114474908Y-82015580D01*
X114473668Y-82034320D01*
X114452319Y-82183765D01*
X114443539Y-82215075D01*
X114225000Y-82725000D01*
X114225000Y-86975199D01*
X114215461Y-87022891D01*
X114100000Y-87300000D01*
X114100000Y-88925000D01*
X114125000Y-89250000D01*
X114125000Y-89250002D01*
X114158333Y-89333333D01*
X114175000Y-89375000D01*
X114300000Y-89425000D01*
X114845728Y-89425000D01*
X114858317Y-89427971D01*
X114867690Y-89426960D01*
X114901182Y-89438091D01*
X115035208Y-89505104D01*
X115086367Y-89552691D01*
X115093066Y-89565651D01*
X115164312Y-89725953D01*
X115175000Y-89776315D01*
X115175000Y-95962614D01*
X115155315Y-96029653D01*
X115102511Y-96075408D01*
X115092706Y-96079390D01*
X114846596Y-96167286D01*
X114802073Y-96174478D01*
X113844074Y-96152706D01*
X113777499Y-96131503D01*
X113732955Y-96077673D01*
X113722910Y-96030916D01*
X113700696Y-94764700D01*
X113719202Y-94697328D01*
X113722476Y-94692307D01*
X113975000Y-94325000D01*
X114000000Y-92925000D01*
X113600000Y-92575000D01*
X113599998Y-92575000D01*
X113599997Y-92574999D01*
X111087100Y-92599397D01*
X111019872Y-92580364D01*
X110987324Y-92550632D01*
X110324161Y-91681660D01*
X110299139Y-91616426D01*
X110298794Y-91610215D01*
X110278871Y-90952754D01*
X110296516Y-90885151D01*
X110347910Y-90837818D01*
X110402814Y-90825000D01*
X111401000Y-90825000D01*
X111468039Y-90844685D01*
X111513794Y-90897489D01*
X111525000Y-90949000D01*
X111525000Y-91475000D01*
X111574998Y-91699997D01*
X111574999Y-91699999D01*
X111699995Y-91874994D01*
X111699997Y-91874996D01*
X111700000Y-91875000D01*
X111800000Y-92000000D01*
X111800002Y-92000001D01*
X111949999Y-92075000D01*
X111950000Y-92075000D01*
X114375000Y-92075000D01*
X114600000Y-92025000D01*
X114700000Y-91900000D01*
X114716860Y-90837818D01*
X114725000Y-90325005D01*
X114724999Y-90325004D01*
X114725000Y-90325000D01*
X114675000Y-90100000D01*
X114600000Y-90025000D01*
X114425000Y-89950000D01*
X114424998Y-89949999D01*
X113792286Y-89926566D01*
X113770420Y-89919256D01*
X113747545Y-89916416D01*
X113730467Y-89905900D01*
X113726021Y-89904414D01*
X113717502Y-89897918D01*
X113644616Y-89837180D01*
X113605717Y-89779140D01*
X113600000Y-89741921D01*
X113600000Y-86723879D01*
X113608868Y-86677828D01*
X113700000Y-86450000D01*
X113700000Y-82746478D01*
X113707224Y-82704772D01*
X113950000Y-82025000D01*
X113999284Y-79314375D01*
X114020185Y-79247705D01*
X114023307Y-79243251D01*
X114807514Y-78175000D01*
X117175000Y-74950000D01*
X117175001Y-74949997D01*
X117175003Y-74949994D01*
X117274997Y-74675007D01*
X117275000Y-74675000D01*
X117325000Y-74475000D01*
X117328570Y-74336940D01*
X117331445Y-74313417D01*
X117332621Y-74308092D01*
X117379234Y-73748729D01*
X117379856Y-73737660D01*
X117380246Y-73724301D01*
X117380271Y-73713231D01*
X117362974Y-73012708D01*
X117362976Y-73006557D01*
X117397276Y-71680294D01*
X117401806Y-71664957D01*
X117401497Y-71651271D01*
X117415424Y-71618851D01*
X117480118Y-71512987D01*
X117504554Y-71484083D01*
X117966781Y-71082146D01*
X117984335Y-71069398D01*
X118065551Y-71020668D01*
X118127980Y-71003006D01*
X120104120Y-70981291D01*
X120154362Y-70974484D01*
X120193136Y-70964238D01*
X120223824Y-70960128D01*
X120927273Y-70954545D01*
X120938193Y-70954941D01*
G37*
G04 #@! TD.AperFunction*
G04 #@! TD*
G04 #@! TA.AperFunction,Conductor*
G04 #@! TO.N,/CLM_CIRCUIT*
G36*
X122671633Y-95519685D02*
G01*
X122717388Y-95572489D01*
X122728540Y-95620355D01*
X122748813Y-96309649D01*
X122731108Y-96377238D01*
X122727205Y-96383315D01*
X122425000Y-96824999D01*
X122425000Y-97149399D01*
X122405315Y-97216438D01*
X122352511Y-97262193D01*
X122299410Y-97273389D01*
X120597410Y-97251569D01*
X120589521Y-97249142D01*
X120581353Y-97250317D01*
X120556616Y-97239020D01*
X120530629Y-97231026D01*
X120525305Y-97224721D01*
X120517797Y-97221292D01*
X120503093Y-97198412D01*
X120485555Y-97177640D01*
X120483509Y-97167939D01*
X120480023Y-97162514D01*
X120475000Y-97127579D01*
X120475000Y-97026636D01*
X120494685Y-96959597D01*
X120543546Y-96915727D01*
X120548818Y-96913091D01*
X120604272Y-96900000D01*
X121150000Y-96900000D01*
X121325000Y-96800000D01*
X121425000Y-96525000D01*
X121403098Y-95627023D01*
X121421142Y-95559524D01*
X121472815Y-95512495D01*
X121527061Y-95500000D01*
X122604594Y-95500000D01*
X122671633Y-95519685D01*
G37*
G04 #@! TD.AperFunction*
G04 #@! TD*
G04 #@! TA.AperFunction,Conductor*
G04 #@! TO.N,Net-(U1-T-OFF)*
G36*
X118407795Y-76318228D02*
G01*
X118441397Y-76379487D01*
X118444220Y-76409943D01*
X118428753Y-76904876D01*
X118406986Y-76971265D01*
X118352778Y-77015348D01*
X118304815Y-77025000D01*
X118249999Y-77025000D01*
X118150001Y-77124998D01*
X118149997Y-77125003D01*
X116750001Y-79174996D01*
X116750001Y-79174997D01*
X116675001Y-79324997D01*
X116675000Y-79324998D01*
X116600000Y-79550000D01*
X116600000Y-82129877D01*
X116599524Y-82132809D01*
X116599919Y-82134359D01*
X116593637Y-82169090D01*
X116551893Y-82294321D01*
X116547568Y-82305470D01*
X116482102Y-82452767D01*
X116436887Y-82506033D01*
X116370965Y-82526386D01*
X115153625Y-82547743D01*
X115086251Y-82529237D01*
X115039577Y-82477244D01*
X115027473Y-82421380D01*
X115047722Y-81368452D01*
X115068691Y-81301807D01*
X115122365Y-81257076D01*
X115168434Y-81246883D01*
X116000000Y-81225000D01*
X116069720Y-81132039D01*
X116081218Y-81118781D01*
X116200000Y-81000000D01*
X116225000Y-80850000D01*
X116249826Y-79236306D01*
X116252216Y-79213916D01*
X116294793Y-79001034D01*
X116315414Y-78953377D01*
X118094013Y-76458397D01*
X118107292Y-76442707D01*
X118231008Y-76318991D01*
X118275130Y-76290576D01*
X118276728Y-76289976D01*
X118346408Y-76284860D01*
X118407795Y-76318228D01*
G37*
G04 #@! TD.AperFunction*
G04 #@! TD*
G04 #@! TA.AperFunction,Conductor*
G04 #@! TO.N,Net-(U1-T-ON)*
G36*
X119129450Y-71742670D02*
G01*
X119163777Y-71763266D01*
X119211134Y-71814636D01*
X119223965Y-71871391D01*
X119200000Y-73524998D01*
X119200000Y-73525000D01*
X119375000Y-73675000D01*
X120007328Y-73699320D01*
X120041773Y-73705591D01*
X120065260Y-73713420D01*
X120122635Y-73753294D01*
X120122876Y-73753595D01*
X120142328Y-73777910D01*
X120168836Y-73842556D01*
X120169500Y-73855372D01*
X120169500Y-74401000D01*
X120149815Y-74468039D01*
X120097011Y-74513794D01*
X120045500Y-74525000D01*
X118085932Y-74525000D01*
X118064787Y-74518791D01*
X118042804Y-74517258D01*
X118031919Y-74509139D01*
X118018893Y-74505315D01*
X118004464Y-74488663D01*
X117986796Y-74475486D01*
X117976025Y-74455843D01*
X117973138Y-74452511D01*
X117969827Y-74444539D01*
X117933125Y-74346666D01*
X117925236Y-74301862D01*
X117929923Y-73842556D01*
X117949549Y-71919175D01*
X117969917Y-71852341D01*
X117978269Y-71841076D01*
X118037821Y-71769614D01*
X118095859Y-71730717D01*
X118133078Y-71725000D01*
X119065655Y-71725000D01*
X119129450Y-71742670D01*
G37*
G04 #@! TD.AperFunction*
G04 #@! TD*
G04 #@! TA.AperFunction,Conductor*
G04 #@! TO.N,Net-(D3-A)*
G36*
X114626182Y-71538091D02*
G01*
X114681454Y-71565727D01*
X114732613Y-71613314D01*
X114750000Y-71676636D01*
X114750000Y-74390654D01*
X114745530Y-74406790D01*
X114745996Y-74421911D01*
X114732329Y-74454451D01*
X114710780Y-74490366D01*
X114659409Y-74537725D01*
X114605459Y-74550565D01*
X111651951Y-74574577D01*
X111584754Y-74555438D01*
X111563262Y-74538262D01*
X111486774Y-74461774D01*
X111453289Y-74400451D01*
X111450460Y-74372996D01*
X111474551Y-71650718D01*
X111483304Y-71621853D01*
X111489724Y-71592369D01*
X111493962Y-71586709D01*
X111494828Y-71583855D01*
X111510871Y-71564128D01*
X111513698Y-71561301D01*
X111575025Y-71527829D01*
X111601362Y-71525000D01*
X114570728Y-71525000D01*
X114626182Y-71538091D01*
G37*
G04 #@! TD.AperFunction*
G04 #@! TD*
G04 #@! TA.AperFunction,Conductor*
G04 #@! TO.N,GND*
G36*
X128765314Y-66644685D02*
G01*
X128811069Y-66697489D01*
X128822246Y-66751695D01*
X128800000Y-67774999D01*
X128889153Y-67975595D01*
X128899838Y-68026706D01*
X128825119Y-80380262D01*
X128824713Y-80382712D01*
X128825040Y-80383994D01*
X128818758Y-80418724D01*
X128766242Y-80576273D01*
X128726368Y-80633648D01*
X128704059Y-80647970D01*
X128625454Y-80687272D01*
X128571540Y-80700353D01*
X124575003Y-80749999D01*
X124575002Y-80749999D01*
X124374998Y-80825000D01*
X124374997Y-80825002D01*
X124250004Y-80949994D01*
X124250001Y-80949997D01*
X124150000Y-81099999D01*
X124150000Y-81100000D01*
X124150000Y-87650000D01*
X124200000Y-87800000D01*
X124300000Y-87925000D01*
X124450000Y-87925000D01*
X124525000Y-87850000D01*
X124600000Y-87675000D01*
X124600000Y-82817366D01*
X124604771Y-82783301D01*
X124628571Y-82700000D01*
X124638098Y-82666654D01*
X124675441Y-82607605D01*
X124685253Y-82599819D01*
X124824994Y-82500004D01*
X124825000Y-82500000D01*
X124863681Y-82461319D01*
X124925004Y-82427834D01*
X124951362Y-82425000D01*
X129429935Y-82425000D01*
X129496974Y-82444685D01*
X129542729Y-82497489D01*
X129553871Y-82545002D01*
X129572919Y-83135514D01*
X129571277Y-83141852D01*
X129572675Y-83148249D01*
X129562628Y-83175256D01*
X129555406Y-83203153D01*
X129550032Y-83209119D01*
X129548316Y-83213735D01*
X129523381Y-83238714D01*
X129507679Y-83250490D01*
X129442236Y-83274964D01*
X129434148Y-83275285D01*
X125900001Y-83299999D01*
X125750001Y-83349999D01*
X125749998Y-83350001D01*
X125649999Y-83475000D01*
X125649999Y-83475001D01*
X125674998Y-86124994D01*
X125674999Y-86124996D01*
X125674999Y-86124998D01*
X125675000Y-86125000D01*
X125775000Y-86350000D01*
X125950000Y-86425000D01*
X127676120Y-86425000D01*
X127683448Y-86426411D01*
X127687869Y-86425558D01*
X127722168Y-86433867D01*
X127768532Y-86452413D01*
X127823465Y-86495585D01*
X127841708Y-86533478D01*
X127870346Y-86633713D01*
X127875114Y-86666937D01*
X127908725Y-91624538D01*
X127917690Y-92946824D01*
X127924154Y-93900159D01*
X127904925Y-93967331D01*
X127852432Y-94013443D01*
X127800157Y-94025000D01*
X126702397Y-94025000D01*
X126635358Y-94005315D01*
X126589603Y-93952511D01*
X126578442Y-93897650D01*
X126580495Y-93821683D01*
X126600000Y-93100000D01*
X126425000Y-92950000D01*
X126424998Y-92950000D01*
X123264125Y-92950000D01*
X123236242Y-92946824D01*
X122967010Y-92884693D01*
X122946315Y-92873051D01*
X122923811Y-92865473D01*
X122910270Y-92852776D01*
X122906114Y-92850438D01*
X122898065Y-92841331D01*
X122832704Y-92759630D01*
X122819343Y-92739040D01*
X121638811Y-90451758D01*
X121625000Y-90394886D01*
X121625000Y-82699998D01*
X121550000Y-82450000D01*
X121375002Y-82250002D01*
X121375001Y-82250001D01*
X121375000Y-82250000D01*
X121150000Y-82075000D01*
X120875000Y-82000000D01*
X118225000Y-82000000D01*
X118100001Y-82049999D01*
X118100000Y-82050000D01*
X117950000Y-82274999D01*
X117950000Y-82275000D01*
X117950000Y-83375000D01*
X118025000Y-83600000D01*
X118150000Y-83700000D01*
X118400000Y-83750000D01*
X119718300Y-83773969D01*
X119718367Y-83773990D01*
X119718435Y-83773972D01*
X119751809Y-83784473D01*
X119784971Y-83794870D01*
X119785037Y-83794930D01*
X119785082Y-83794944D01*
X119811306Y-83818567D01*
X119869293Y-83888152D01*
X119897088Y-83952255D01*
X119897916Y-83972920D01*
X119877548Y-84441386D01*
X119854970Y-84507507D01*
X119828070Y-84535196D01*
X119808072Y-84550196D01*
X119742631Y-84574676D01*
X119733667Y-84575000D01*
X116356851Y-84575000D01*
X116297093Y-84559651D01*
X115825000Y-84300000D01*
X114748880Y-84300000D01*
X114741551Y-84298588D01*
X114737130Y-84299442D01*
X114702828Y-84291131D01*
X114676280Y-84280512D01*
X114621346Y-84237338D01*
X114598474Y-84171318D01*
X114598357Y-84167861D01*
X114590899Y-83794944D01*
X114577447Y-83122377D01*
X114595787Y-83054959D01*
X114647665Y-83008157D01*
X114697331Y-82995967D01*
X116850000Y-82925000D01*
X116925000Y-82825000D01*
X116925000Y-80850000D01*
X118449999Y-80850000D01*
X118473077Y-81149999D01*
X118475000Y-81175000D01*
X118550000Y-81250000D01*
X119775000Y-81250000D01*
X119875000Y-81150000D01*
X119875000Y-80850000D01*
X119875000Y-80849999D01*
X119800000Y-80800000D01*
X118475000Y-80800000D01*
X118474999Y-80800000D01*
X118474999Y-80800001D01*
X118449999Y-80850000D01*
X116925000Y-80850000D01*
X116925000Y-79589581D01*
X116929281Y-79575000D01*
X118400000Y-79575000D01*
X118400000Y-79625000D01*
X118425000Y-79925000D01*
X118475000Y-79950000D01*
X119824999Y-79950000D01*
X119825000Y-79950000D01*
X119837500Y-79925000D01*
X119875000Y-79850001D01*
X119875000Y-79624999D01*
X126100000Y-79624999D01*
X126100000Y-79625000D01*
X126100000Y-79950000D01*
X126166649Y-79972216D01*
X126182879Y-79978939D01*
X126203942Y-79989471D01*
X126224999Y-80000000D01*
X126225000Y-80000000D01*
X127575000Y-80000000D01*
X127625000Y-79975000D01*
X127600000Y-79575000D01*
X127599999Y-79574999D01*
X127550001Y-79550000D01*
X127550000Y-79550000D01*
X126150000Y-79550000D01*
X126100000Y-79624999D01*
X119875000Y-79624999D01*
X119875000Y-79574999D01*
X119750003Y-79525000D01*
X119749998Y-79525000D01*
X118900000Y-79541666D01*
X118475000Y-79550000D01*
X118400000Y-79575000D01*
X116929281Y-79575000D01*
X116930820Y-79569759D01*
X116931786Y-79549122D01*
X116943652Y-79526057D01*
X116944685Y-79522542D01*
X116947933Y-79517738D01*
X116986753Y-79463127D01*
X117529217Y-78700000D01*
X117724700Y-78424998D01*
X118425000Y-78424998D01*
X118450000Y-78650000D01*
X118549999Y-78700000D01*
X118550000Y-78700000D01*
X119800000Y-78700000D01*
X119875000Y-78625000D01*
X119875000Y-78400000D01*
X119800000Y-78325000D01*
X119799998Y-78324999D01*
X118474999Y-78350000D01*
X118474998Y-78350000D01*
X118435173Y-78389825D01*
X118435293Y-78390939D01*
X118430275Y-78409962D01*
X118425000Y-78424998D01*
X117724700Y-78424998D01*
X118362925Y-77527157D01*
X118417810Y-77483921D01*
X118463992Y-77475000D01*
X119950000Y-77475000D01*
X120250000Y-77425000D01*
X120375000Y-77250000D01*
X120375000Y-73450000D01*
X120266299Y-73404231D01*
X119975881Y-73281949D01*
X119921734Y-73237791D01*
X119900055Y-73171370D01*
X119900000Y-73167666D01*
X119900000Y-71899000D01*
X119919685Y-71831961D01*
X119972489Y-71786206D01*
X120024000Y-71775000D01*
X121038891Y-71775000D01*
X121105463Y-71794385D01*
X121350000Y-71950000D01*
X122205274Y-71950000D01*
X122272313Y-71969685D01*
X122318068Y-72022489D01*
X122329198Y-72069652D01*
X122373650Y-73336543D01*
X122356328Y-73404231D01*
X122354340Y-73407463D01*
X122199999Y-73649999D01*
X122174999Y-75050000D01*
X122925000Y-76300000D01*
X122925005Y-76300007D01*
X124900000Y-78700000D01*
X124900001Y-78700000D01*
X125858333Y-78691666D01*
X127775000Y-78675000D01*
X127975000Y-78550000D01*
X128125000Y-78325000D01*
X128125000Y-72993840D01*
X128125456Y-72985942D01*
X128125293Y-72985933D01*
X128125497Y-72982390D01*
X128125500Y-72982365D01*
X128125499Y-71717636D01*
X128125498Y-71717629D01*
X128125292Y-71714061D01*
X128125455Y-71714051D01*
X128125000Y-71706166D01*
X128125000Y-68074999D01*
X127875000Y-67700000D01*
X127875001Y-67700000D01*
X127571137Y-67678295D01*
X127546370Y-67669060D01*
X127520545Y-67663442D01*
X127509867Y-67655448D01*
X127505671Y-67653884D01*
X127492291Y-67642291D01*
X127461319Y-67611319D01*
X127427834Y-67549996D01*
X127425000Y-67523638D01*
X127425000Y-66749000D01*
X127444685Y-66681961D01*
X127497489Y-66636206D01*
X127549000Y-66625000D01*
X128698275Y-66625000D01*
X128765314Y-66644685D01*
G37*
G04 #@! TD.AperFunction*
G04 #@! TD*
G04 #@! TA.AperFunction,Conductor*
G04 #@! TO.N,Net-(Q4-B)*
G36*
X107648433Y-71795362D02*
G01*
X107694653Y-71847759D01*
X107705208Y-71916827D01*
X107705129Y-71917403D01*
X107586563Y-72767131D01*
X107557803Y-72830807D01*
X107499183Y-72868826D01*
X107493827Y-72870293D01*
X107374999Y-72899999D01*
X107325000Y-72974998D01*
X107324999Y-72974999D01*
X107300000Y-75074998D01*
X107300000Y-75075000D01*
X108375000Y-77350000D01*
X109475000Y-79425000D01*
X109475001Y-79425001D01*
X109624999Y-79525000D01*
X109625000Y-79525000D01*
X110236389Y-79525000D01*
X110263288Y-79527953D01*
X110428615Y-79564692D01*
X110489786Y-79598449D01*
X110502617Y-79613664D01*
X110702636Y-79893690D01*
X110725584Y-79959684D01*
X110725712Y-79963468D01*
X110748870Y-81213993D01*
X110730430Y-81281386D01*
X110702353Y-81313117D01*
X109775555Y-82054555D01*
X109717684Y-82080170D01*
X109137815Y-82172949D01*
X109112032Y-82174351D01*
X108625031Y-82150000D01*
X108625000Y-82150000D01*
X108500000Y-82150000D01*
X108499997Y-82150000D01*
X108325000Y-82200000D01*
X108324999Y-82200001D01*
X106900000Y-84849999D01*
X106899999Y-84850002D01*
X106950000Y-86524999D01*
X107025001Y-86725003D01*
X107199999Y-86949999D01*
X107200000Y-86950000D01*
X107400000Y-87025000D01*
X108107145Y-87025000D01*
X108174184Y-87044685D01*
X108219939Y-87097489D01*
X108230984Y-87142702D01*
X108290697Y-88317048D01*
X108293375Y-88369703D01*
X108277120Y-88437656D01*
X108226708Y-88486033D01*
X108169535Y-88500000D01*
X106965266Y-88500000D01*
X106935192Y-88496298D01*
X106899828Y-88487457D01*
X106839564Y-88452100D01*
X106823575Y-88430959D01*
X106791956Y-88378261D01*
X106774313Y-88317049D01*
X106750000Y-87150000D01*
X106745135Y-87142703D01*
X106270374Y-86430561D01*
X106249566Y-86363862D01*
X106249557Y-86363272D01*
X106231325Y-84849999D01*
X106225425Y-84360340D01*
X106243272Y-84294746D01*
X107745787Y-81806974D01*
X107755085Y-81793642D01*
X107823853Y-81707682D01*
X107881103Y-81667632D01*
X107890601Y-81664849D01*
X107912900Y-81659275D01*
X107935193Y-81653702D01*
X107965266Y-81650000D01*
X109025000Y-81650000D01*
X109150000Y-81575000D01*
X109250000Y-81375000D01*
X109275000Y-79900000D01*
X109077095Y-79575000D01*
X106567628Y-75453948D01*
X106549548Y-75391109D01*
X106545333Y-75074998D01*
X106525000Y-73550000D01*
X106275000Y-73375000D01*
X106274998Y-73374999D01*
X104998766Y-73352210D01*
X104932089Y-73331332D01*
X104887284Y-73277719D01*
X104876996Y-73226230D01*
X104882737Y-72870293D01*
X104898049Y-71920921D01*
X104918812Y-71854211D01*
X104972347Y-71809314D01*
X105020932Y-71798929D01*
X107581223Y-71776272D01*
X107648433Y-71795362D01*
G37*
G04 #@! TD.AperFunction*
G04 #@! TD*
G04 #@! TA.AperFunction,Conductor*
G04 #@! TO.N,GND*
G36*
X127813418Y-95399667D02*
G01*
X127817409Y-95400862D01*
X127821481Y-95399973D01*
X127850593Y-95410800D01*
X127880350Y-95419713D01*
X127884176Y-95423291D01*
X127886968Y-95424330D01*
X127911947Y-95449264D01*
X127926408Y-95468545D01*
X127950885Y-95533987D01*
X127951155Y-95539300D01*
X127974082Y-96318808D01*
X127961057Y-96377883D01*
X127959285Y-96381429D01*
X127911710Y-96432599D01*
X127848364Y-96450000D01*
X125125000Y-96450000D01*
X124975000Y-96549999D01*
X124975000Y-97176000D01*
X124955315Y-97243039D01*
X124902511Y-97288794D01*
X124851000Y-97300000D01*
X123124000Y-97300000D01*
X123056961Y-97280315D01*
X123011206Y-97227511D01*
X123000000Y-97176000D01*
X123000000Y-96774800D01*
X123009538Y-96727108D01*
X123083333Y-96550000D01*
X123125000Y-96450000D01*
X123125000Y-95551362D01*
X123144685Y-95484323D01*
X123161318Y-95463682D01*
X123175736Y-95449264D01*
X123213404Y-95411595D01*
X123274725Y-95378111D01*
X123301747Y-95375279D01*
X127813418Y-95399667D01*
G37*
G04 #@! TD.AperFunction*
G04 #@! TD*
G04 #@! TA.AperFunction,Conductor*
G04 #@! TO.N,+5V*
G36*
X123093039Y-65619685D02*
G01*
X123138794Y-65672489D01*
X123150000Y-65724000D01*
X123150000Y-66879220D01*
X123130315Y-66946259D01*
X123077511Y-66992014D01*
X123029262Y-67003177D01*
X122299434Y-67022383D01*
X122231900Y-67004469D01*
X122184772Y-66952887D01*
X122175877Y-66928508D01*
X122100000Y-66625000D01*
X122025000Y-66500000D01*
X121675000Y-66400000D01*
X121674999Y-66399999D01*
X118300000Y-66449999D01*
X117950000Y-66774999D01*
X117950000Y-68465402D01*
X117930315Y-68532441D01*
X117903462Y-68562230D01*
X117358311Y-68998350D01*
X117293665Y-69024858D01*
X117282343Y-69025513D01*
X115249999Y-69050000D01*
X114875000Y-69325000D01*
X114874999Y-69325001D01*
X114775000Y-69524998D01*
X114774999Y-69525002D01*
X114703340Y-70074388D01*
X114700188Y-70083440D01*
X114700378Y-70089606D01*
X114686711Y-70122147D01*
X114643578Y-70194036D01*
X114592703Y-70241148D01*
X114500450Y-70287274D01*
X114446546Y-70300355D01*
X112529804Y-70324314D01*
X112462524Y-70305469D01*
X112437603Y-70284932D01*
X112396738Y-70241148D01*
X111775000Y-69575000D01*
X111029268Y-69025513D01*
X110825001Y-68875000D01*
X110824995Y-68874997D01*
X109687734Y-68358061D01*
X109477811Y-68262641D01*
X109431245Y-68225887D01*
X109275000Y-68025000D01*
X109274998Y-68024999D01*
X107500001Y-67975000D01*
X107500000Y-67975000D01*
X107499999Y-67975000D01*
X107499998Y-67975001D01*
X107049999Y-68274999D01*
X107000000Y-67150000D01*
X107022097Y-67186828D01*
X107022097Y-67186829D01*
X107224998Y-67524998D01*
X107224999Y-67524998D01*
X107225000Y-67525000D01*
X107525000Y-67650000D01*
X107525001Y-67649999D01*
X107525002Y-67650000D01*
X107903098Y-67634996D01*
X110625393Y-67526968D01*
X110693159Y-67543978D01*
X110712256Y-67557807D01*
X112350000Y-69000000D01*
X114150000Y-69000000D01*
X114843895Y-68521451D01*
X114910257Y-68499596D01*
X114912756Y-68499539D01*
X116925000Y-68475000D01*
X117425000Y-68050000D01*
X117449140Y-66408471D01*
X117469809Y-66341729D01*
X117495661Y-66313470D01*
X117792727Y-66075817D01*
X117857371Y-66049311D01*
X117866288Y-66048709D01*
X121825000Y-65925000D01*
X122216654Y-65625500D01*
X122281865Y-65600413D01*
X122291978Y-65600000D01*
X123026000Y-65600000D01*
X123093039Y-65619685D01*
G37*
G04 #@! TD.AperFunction*
G04 #@! TD*
G04 #@! TA.AperFunction,Conductor*
G04 #@! TO.N,/RESET_FEEDBACK*
G36*
X102450829Y-73168206D02*
G01*
X102517239Y-73189912D01*
X102561374Y-73244077D01*
X102569218Y-73313505D01*
X102538281Y-73376153D01*
X102510869Y-73398478D01*
X102425000Y-73449999D01*
X102325000Y-73550000D01*
X102324999Y-73550001D01*
X102425000Y-87700002D01*
X102694210Y-89315261D01*
X102686665Y-89382596D01*
X102475000Y-89899998D01*
X102474999Y-89900000D01*
X102499581Y-91915666D01*
X102482699Y-91979658D01*
X102409914Y-92104431D01*
X102325000Y-92250000D01*
X102325000Y-95775000D01*
X102389285Y-95860713D01*
X102474999Y-95975000D01*
X102475000Y-95975000D01*
X105791234Y-95975000D01*
X105854104Y-95992120D01*
X107184998Y-96774999D01*
X107463870Y-96939041D01*
X107471739Y-96947429D01*
X107482203Y-96952208D01*
X107495211Y-96972449D01*
X107511674Y-96989998D01*
X107514729Y-97002820D01*
X107519977Y-97010986D01*
X107525000Y-97045921D01*
X107525000Y-97149440D01*
X107505315Y-97216479D01*
X107452511Y-97262234D01*
X107399450Y-97273430D01*
X105647450Y-97251530D01*
X105580662Y-97231009D01*
X105535571Y-97177638D01*
X105525000Y-97127540D01*
X105525000Y-96774999D01*
X105375000Y-96550000D01*
X105374999Y-96549999D01*
X102099168Y-96451478D01*
X102071700Y-96442507D01*
X102043469Y-96436366D01*
X102036173Y-96430904D01*
X102032751Y-96429787D01*
X102015215Y-96415215D01*
X101886319Y-96286319D01*
X101852834Y-96224996D01*
X101850000Y-96198638D01*
X101850000Y-91837544D01*
X101869685Y-91770505D01*
X101870826Y-91768761D01*
X102050000Y-91500000D01*
X102150000Y-91225000D01*
X102150000Y-89700000D01*
X102075000Y-89475000D01*
X102074999Y-89474999D01*
X101905217Y-89361811D01*
X101860356Y-89308246D01*
X101850000Y-89258637D01*
X101850000Y-73277814D01*
X101869685Y-73210775D01*
X101922489Y-73165020D01*
X101977754Y-73153871D01*
X102450829Y-73168206D01*
G37*
G04 #@! TD.AperFunction*
G04 #@! TD*
G04 #@! TA.AperFunction,Conductor*
G04 #@! TO.N,Net-(D1-K)*
G36*
X110888868Y-71289897D02*
G01*
X110953850Y-71315571D01*
X110994636Y-71372300D01*
X111001628Y-71411578D01*
X111046738Y-74501547D01*
X111050000Y-74725000D01*
X111200000Y-75000000D01*
X111378810Y-75160929D01*
X111423512Y-75201161D01*
X111432756Y-75215967D01*
X111445362Y-75227052D01*
X111459789Y-75259263D01*
X111498070Y-75393245D01*
X111501154Y-75406926D01*
X111523172Y-75539036D01*
X111524847Y-75561119D01*
X111500582Y-77332457D01*
X111479981Y-77399221D01*
X111473423Y-77408220D01*
X111400000Y-77500000D01*
X111450000Y-79075000D01*
X111760581Y-79672272D01*
X111774553Y-79731251D01*
X111750489Y-81415750D01*
X111732001Y-81479140D01*
X111225001Y-82299999D01*
X111225000Y-82300001D01*
X111200000Y-86499996D01*
X111299999Y-87449999D01*
X111399999Y-87799997D01*
X111400003Y-87800006D01*
X111849995Y-88599994D01*
X111849999Y-88599999D01*
X111850000Y-88600000D01*
X111925000Y-88675000D01*
X113137647Y-88789400D01*
X113202541Y-88815294D01*
X113243134Y-88872162D01*
X113250000Y-88912852D01*
X113250000Y-90275000D01*
X113325000Y-90350000D01*
X113325001Y-90350001D01*
X113450000Y-90425000D01*
X113877210Y-90425000D01*
X113944249Y-90444685D01*
X113990004Y-90497489D01*
X114001204Y-90547784D01*
X114011500Y-91598011D01*
X113992474Y-91665241D01*
X113940121Y-91711511D01*
X113885569Y-91723212D01*
X112411298Y-91700176D01*
X112390954Y-91698173D01*
X112389927Y-91697985D01*
X112275000Y-91675000D01*
X112150315Y-91654219D01*
X112149356Y-91654044D01*
X112145475Y-91652091D01*
X112102854Y-91635236D01*
X112077399Y-91618266D01*
X112035273Y-91570546D01*
X112012696Y-91525392D01*
X111999616Y-91471614D01*
X111987132Y-90547784D01*
X111975000Y-89650000D01*
X111750000Y-89475000D01*
X110779272Y-89475000D01*
X110766682Y-89472028D01*
X110757310Y-89473040D01*
X110723818Y-89461909D01*
X110676182Y-89438091D01*
X110632437Y-89401582D01*
X110591044Y-89346392D01*
X110569198Y-89298892D01*
X110527953Y-89113288D01*
X110525000Y-89086389D01*
X110525000Y-82102914D01*
X110544685Y-82035875D01*
X110563200Y-82013390D01*
X111125000Y-81475000D01*
X111250000Y-81175000D01*
X111225000Y-79850000D01*
X111225000Y-79849999D01*
X111128264Y-79733917D01*
X111100468Y-79669814D01*
X111099530Y-79655853D01*
X111093351Y-79075000D01*
X111075000Y-77350000D01*
X110900000Y-76950000D01*
X110642868Y-76669492D01*
X110637683Y-76660680D01*
X110632451Y-76656468D01*
X110616638Y-76624915D01*
X110555183Y-76440550D01*
X110549037Y-76408632D01*
X110500000Y-75575000D01*
X110450000Y-75350000D01*
X110449999Y-75349998D01*
X109757538Y-74585903D01*
X109727105Y-74523009D01*
X109725425Y-74501547D01*
X109749914Y-71709706D01*
X109751594Y-71690430D01*
X109770029Y-71579822D01*
X109793142Y-71525810D01*
X109844714Y-71457048D01*
X109856233Y-71443767D01*
X109925713Y-71374287D01*
X109983318Y-71341670D01*
X110145214Y-71301196D01*
X110154869Y-71299188D01*
X110434275Y-71252620D01*
X110465875Y-71251443D01*
X110888868Y-71289897D01*
G37*
G04 #@! TD.AperFunction*
G04 #@! TD*
G04 #@! TA.AperFunction,Conductor*
G04 #@! TO.N,/{slash}PFW*
G36*
X107746832Y-93694685D02*
G01*
X107786121Y-93735202D01*
X107806838Y-93769730D01*
X107824495Y-93835297D01*
X107801786Y-95425000D01*
X107800000Y-95550000D01*
X108025000Y-95975000D01*
X108625000Y-96475000D01*
X109510875Y-96475000D01*
X109538758Y-96478175D01*
X109825920Y-96544443D01*
X109833570Y-96547892D01*
X109838763Y-96548147D01*
X109870111Y-96564365D01*
X109973074Y-96637910D01*
X110016184Y-96692894D01*
X110025000Y-96738813D01*
X110025000Y-97149440D01*
X110005315Y-97216479D01*
X109952511Y-97262234D01*
X109899450Y-97273430D01*
X108142008Y-97251462D01*
X108075220Y-97230941D01*
X108030129Y-97177570D01*
X108019686Y-97133103D01*
X108000000Y-96700000D01*
X106833694Y-95974999D01*
X106149999Y-95549999D01*
X102950802Y-95525390D01*
X102921864Y-95516651D01*
X102892329Y-95510226D01*
X102886743Y-95506045D01*
X102883916Y-95505191D01*
X102864075Y-95489075D01*
X102837465Y-95462465D01*
X102803980Y-95401142D01*
X102801177Y-95372029D01*
X102823713Y-94357896D01*
X102844882Y-94291311D01*
X102870216Y-94263827D01*
X102916474Y-94226820D01*
X102981117Y-94200313D01*
X102992918Y-94199653D01*
X106050000Y-94175000D01*
X106564528Y-93707246D01*
X106627374Y-93676717D01*
X106647939Y-93675000D01*
X107679793Y-93675000D01*
X107746832Y-93694685D01*
G37*
G04 #@! TD.AperFunction*
G04 #@! TD*
G04 #@! TA.AperFunction,Conductor*
G04 #@! TO.N,+5V*
G36*
X106614228Y-66099657D02*
G01*
X106680091Y-66119344D01*
X106944777Y-66289500D01*
X106990525Y-66342309D01*
X107001682Y-66390627D01*
X107022097Y-67186828D01*
X107000000Y-67150000D01*
X107050000Y-68275000D01*
X107075000Y-69575000D01*
X107300000Y-69750000D01*
X107840077Y-69773481D01*
X107903986Y-69794534D01*
X108970299Y-70513136D01*
X109014891Y-70566924D01*
X109025000Y-70615964D01*
X109025000Y-71074999D01*
X109024999Y-71074999D01*
X109025000Y-71075000D01*
X109246259Y-71340511D01*
X109274055Y-71404613D01*
X109275000Y-71419893D01*
X109275000Y-74403049D01*
X109255315Y-74470088D01*
X109202511Y-74515843D01*
X109153066Y-74527032D01*
X107901066Y-74547898D01*
X107833708Y-74529333D01*
X107787080Y-74477299D01*
X107775000Y-74423915D01*
X107775000Y-73441333D01*
X107781253Y-73420037D01*
X107782856Y-73397897D01*
X107793427Y-73378578D01*
X107794685Y-73374294D01*
X107799788Y-73366948D01*
X107815659Y-73345787D01*
X107871627Y-73303968D01*
X107907117Y-73296430D01*
X108250000Y-73275000D01*
X108325000Y-71825000D01*
X108225000Y-71450000D01*
X107875000Y-70975000D01*
X107550000Y-70875000D01*
X107549997Y-70874999D01*
X106257862Y-70899379D01*
X106242523Y-70895621D01*
X106229220Y-70896579D01*
X106196146Y-70884260D01*
X105986366Y-70769835D01*
X105936938Y-70720452D01*
X105932858Y-70712287D01*
X105835371Y-70497815D01*
X105824304Y-70449947D01*
X105806098Y-69794535D01*
X105725000Y-66875000D01*
X105550000Y-66650000D01*
X105549999Y-66649999D01*
X105327813Y-66583344D01*
X105300000Y-66575000D01*
X101725000Y-66475000D01*
X101724999Y-66475000D01*
X101724998Y-66475000D01*
X101350000Y-66800000D01*
X101374999Y-89299998D01*
X101450000Y-89500000D01*
X101672282Y-89697584D01*
X101677582Y-89702582D01*
X101838681Y-89863681D01*
X101872166Y-89925004D01*
X101875000Y-89951362D01*
X101875000Y-91170728D01*
X101861909Y-91226182D01*
X101855001Y-91239998D01*
X101843295Y-91258939D01*
X101800027Y-91316631D01*
X101744055Y-91358451D01*
X101734893Y-91361459D01*
X101600000Y-91399999D01*
X101425000Y-91549999D01*
X101424999Y-91550000D01*
X101325001Y-91824994D01*
X101325000Y-91825001D01*
X101325000Y-96600001D01*
X101399999Y-96924999D01*
X101400000Y-96925000D01*
X101600000Y-97000000D01*
X104926000Y-97000000D01*
X104993039Y-97019685D01*
X105038794Y-97072489D01*
X105050000Y-97124000D01*
X105050000Y-99151000D01*
X105030315Y-99218039D01*
X104977511Y-99263794D01*
X104926000Y-99275000D01*
X101295123Y-99275000D01*
X101292190Y-99274524D01*
X101290641Y-99274919D01*
X101255911Y-99268637D01*
X101029559Y-99193186D01*
X100972184Y-99153311D01*
X100953640Y-99121601D01*
X100833887Y-98822218D01*
X100825018Y-98776072D01*
X100849954Y-66583341D01*
X100869691Y-66516320D01*
X100894978Y-66487843D01*
X101390103Y-66078827D01*
X101454323Y-66051308D01*
X101470259Y-66050433D01*
X106614228Y-66099657D01*
G37*
G04 #@! TD.AperFunction*
G04 #@! TD*
G04 #@! TA.AperFunction,Conductor*
G04 #@! TO.N,Net-(U1-VF)*
G36*
X125153895Y-65719685D02*
G01*
X125187139Y-65751067D01*
X125349998Y-65974999D01*
X125349999Y-65975000D01*
X125350000Y-65975000D01*
X129247169Y-65975000D01*
X129314208Y-65994685D01*
X129358837Y-66045091D01*
X129615603Y-66576964D01*
X129662620Y-66674355D01*
X129674952Y-66728473D01*
X129650065Y-81511380D01*
X129630267Y-81578386D01*
X129628017Y-81581753D01*
X129427442Y-81871471D01*
X129422318Y-81878351D01*
X129361677Y-81954152D01*
X129304426Y-81994204D01*
X129266291Y-82000682D01*
X125052067Y-82049685D01*
X125000264Y-82039006D01*
X124827599Y-81962266D01*
X124781132Y-81926415D01*
X124715558Y-81844448D01*
X124693158Y-81801055D01*
X124652859Y-81660008D01*
X124648850Y-81639657D01*
X124630672Y-81476047D01*
X124636012Y-81445832D01*
X124639185Y-81415308D01*
X124642363Y-81409908D01*
X124642834Y-81407244D01*
X124657087Y-81384891D01*
X124687771Y-81346537D01*
X124745022Y-81306485D01*
X124784598Y-81300000D01*
X128850000Y-81300000D01*
X129025000Y-81225000D01*
X129075000Y-81075000D01*
X129150000Y-80675000D01*
X129175000Y-66750000D01*
X129175000Y-66749999D01*
X129100003Y-66600005D01*
X129099995Y-66599993D01*
X129025003Y-66500003D01*
X129025002Y-66500002D01*
X129025000Y-66500000D01*
X128925000Y-66400000D01*
X128875000Y-66391666D01*
X128775002Y-66375000D01*
X128524993Y-66349999D01*
X127175000Y-66375000D01*
X127174997Y-66375001D01*
X127050000Y-66425000D01*
X127049999Y-66425000D01*
X127025327Y-66573033D01*
X127024606Y-66576964D01*
X127005129Y-66674355D01*
X127000000Y-66700000D01*
X126992858Y-66749999D01*
X126975000Y-66875002D01*
X126975000Y-67451000D01*
X126955315Y-67518039D01*
X126902511Y-67563794D01*
X126851000Y-67575000D01*
X125651362Y-67575000D01*
X125584323Y-67555315D01*
X125563681Y-67538681D01*
X124975000Y-66950000D01*
X124371545Y-66950000D01*
X124304506Y-66930315D01*
X124258751Y-66877511D01*
X124247570Y-66828480D01*
X124227530Y-65826480D01*
X124245870Y-65759060D01*
X124297748Y-65712258D01*
X124351505Y-65700000D01*
X125086856Y-65700000D01*
X125153895Y-65719685D01*
G37*
G04 #@! TD.AperFunction*
G04 #@! TD*
G04 #@! TA.AperFunction,Conductor*
G04 #@! TO.N,Net-(U1-DET)*
G36*
X122472909Y-68817766D02*
G01*
X122487229Y-68826592D01*
X122625000Y-68925000D01*
X123822068Y-68949429D01*
X123833428Y-68952234D01*
X123841497Y-68951363D01*
X123874984Y-68962492D01*
X124009978Y-69029989D01*
X124061135Y-69077576D01*
X124068021Y-69090957D01*
X124324999Y-69674999D01*
X124325000Y-69675000D01*
X125612456Y-69675000D01*
X125630540Y-69680310D01*
X125649385Y-69680627D01*
X125677811Y-69694190D01*
X125679495Y-69694685D01*
X125681239Y-69695826D01*
X125825660Y-69792107D01*
X125870521Y-69845672D01*
X125880368Y-69884054D01*
X125900000Y-70100000D01*
X125977545Y-70216318D01*
X125998353Y-70283017D01*
X125998256Y-70290441D01*
X125876918Y-73105497D01*
X125854365Y-73171626D01*
X125845202Y-73183109D01*
X125649999Y-73400000D01*
X125665984Y-74231166D01*
X125675000Y-74700000D01*
X125900000Y-74950000D01*
X127452852Y-74973176D01*
X127519589Y-74993859D01*
X127564551Y-75047340D01*
X127575000Y-75097162D01*
X127575000Y-75601000D01*
X127555315Y-75668039D01*
X127502511Y-75713794D01*
X127451000Y-75725000D01*
X126051859Y-75725000D01*
X126000547Y-75713885D01*
X125506093Y-75489133D01*
X125455528Y-75446938D01*
X125212826Y-75097162D01*
X124657935Y-74297466D01*
X124635891Y-74231166D01*
X124635836Y-74224432D01*
X124679785Y-71939127D01*
X124673061Y-71882894D01*
X124655839Y-71817428D01*
X124634021Y-71765166D01*
X124634017Y-71765160D01*
X124632102Y-71761338D01*
X124633643Y-71760565D01*
X124618583Y-71707710D01*
X124600000Y-70825000D01*
X124525000Y-70650000D01*
X124524998Y-70649998D01*
X124350002Y-70525001D01*
X124350001Y-70525000D01*
X124350000Y-70525000D01*
X124349998Y-70525000D01*
X123206408Y-70525000D01*
X123139369Y-70505315D01*
X123093614Y-70452511D01*
X123092631Y-70450303D01*
X123020140Y-70283017D01*
X122800000Y-69775000D01*
X122616598Y-69795377D01*
X122547795Y-69783215D01*
X122539108Y-69778464D01*
X122450000Y-69725000D01*
X122020507Y-69725000D01*
X121953468Y-69705315D01*
X121907713Y-69652511D01*
X121896558Y-69604541D01*
X121880142Y-69029988D01*
X121878341Y-68966939D01*
X121896102Y-68899366D01*
X121947578Y-68852122D01*
X121991545Y-68839865D01*
X122404418Y-68803963D01*
X122472909Y-68817766D01*
G37*
G04 #@! TD.AperFunction*
G04 #@! TD*
G04 #@! TA.AperFunction,Conductor*
G04 #@! TO.N,Net-(Q2-B)*
G36*
X108825318Y-84844685D02*
G01*
X108871073Y-84897489D01*
X108876848Y-84912703D01*
X109219909Y-86033369D01*
X109225319Y-86067391D01*
X109274347Y-88739432D01*
X109256697Y-88805504D01*
X109125000Y-89024998D01*
X109124999Y-89025001D01*
X109075000Y-89374995D01*
X109050426Y-90136768D01*
X109046788Y-90162844D01*
X109011627Y-90303492D01*
X108976271Y-90363755D01*
X108960113Y-90376590D01*
X108934248Y-90393834D01*
X108882522Y-90428318D01*
X108815822Y-90449126D01*
X108810923Y-90449111D01*
X107776522Y-90425602D01*
X107750000Y-90425000D01*
X107749999Y-90425000D01*
X107749995Y-90425000D01*
X107499999Y-90474999D01*
X107438427Y-90551964D01*
X107381177Y-90592016D01*
X107338501Y-90598462D01*
X106520901Y-90578022D01*
X106454374Y-90556668D01*
X106409953Y-90502737D01*
X106400000Y-90454061D01*
X106400000Y-89498879D01*
X106401411Y-89491549D01*
X106400558Y-89487128D01*
X106408869Y-89452827D01*
X106489128Y-89252179D01*
X106521876Y-89205554D01*
X106698755Y-89048328D01*
X106759580Y-89018897D01*
X107139307Y-88951887D01*
X107160856Y-88950000D01*
X108525000Y-88950000D01*
X108700000Y-88850000D01*
X108775000Y-88675000D01*
X108775000Y-86825000D01*
X108650000Y-86625000D01*
X108649998Y-86624999D01*
X108643925Y-86623481D01*
X108583661Y-86588125D01*
X108552080Y-86525800D01*
X108550000Y-86503184D01*
X108550000Y-84949000D01*
X108552550Y-84940314D01*
X108551262Y-84931353D01*
X108562240Y-84907312D01*
X108569685Y-84881961D01*
X108576525Y-84876033D01*
X108580287Y-84867797D01*
X108602521Y-84853507D01*
X108622489Y-84836206D01*
X108633003Y-84833918D01*
X108639065Y-84830023D01*
X108674000Y-84825000D01*
X108758279Y-84825000D01*
X108825318Y-84844685D01*
G37*
G04 #@! TD.AperFunction*
G04 #@! TD*
G04 #@! TA.AperFunction,Conductor*
G04 #@! TO.N,Net-(Q3-B)*
G36*
X103053934Y-79696048D02*
G01*
X103081642Y-79730773D01*
X104240671Y-81886160D01*
X104255085Y-81954527D01*
X104236218Y-82011233D01*
X103800000Y-82699999D01*
X103799999Y-82700000D01*
X103848351Y-84271413D01*
X103830738Y-84339027D01*
X103812091Y-84362908D01*
X103600000Y-84574998D01*
X103599999Y-84575000D01*
X103550422Y-87599206D01*
X103539325Y-87648484D01*
X103425000Y-87899998D01*
X103425000Y-89250000D01*
X103797828Y-89716035D01*
X103824336Y-89780681D01*
X103825000Y-89793497D01*
X103825000Y-91211856D01*
X103805315Y-91278895D01*
X103773933Y-91312139D01*
X103550004Y-91474996D01*
X103550000Y-91474999D01*
X103350000Y-91699999D01*
X103324999Y-93124999D01*
X103325000Y-93125000D01*
X103500000Y-93350000D01*
X103625000Y-93375000D01*
X105399999Y-93375000D01*
X105400000Y-93375000D01*
X105525000Y-93275000D01*
X105570509Y-92979185D01*
X105575470Y-92966993D01*
X105575946Y-92957316D01*
X105592161Y-92925974D01*
X105672383Y-92813662D01*
X105727366Y-92770554D01*
X105746374Y-92764694D01*
X105911712Y-92727953D01*
X105938611Y-92725000D01*
X108116772Y-92725000D01*
X108133160Y-92726088D01*
X108422682Y-92764691D01*
X108453058Y-92768741D01*
X108478057Y-92779849D01*
X108504269Y-92787699D01*
X108513068Y-92795406D01*
X108516908Y-92797113D01*
X108530818Y-92810955D01*
X108620909Y-92916061D01*
X108649592Y-92979771D01*
X108650744Y-92994693D01*
X108674999Y-94449999D01*
X108824998Y-94674998D01*
X108824999Y-94674998D01*
X108825000Y-94675000D01*
X109035510Y-94691193D01*
X109100843Y-94715962D01*
X109142413Y-94772119D01*
X109150000Y-94814828D01*
X109150000Y-95826000D01*
X109130315Y-95893039D01*
X109077511Y-95938794D01*
X109026000Y-95950000D01*
X108723880Y-95950000D01*
X108677828Y-95941131D01*
X108367048Y-95816819D01*
X108312114Y-95773645D01*
X108303691Y-95760047D01*
X108139199Y-95451624D01*
X108124622Y-95394826D01*
X108100000Y-93425000D01*
X108000000Y-93275000D01*
X106325000Y-93225000D01*
X106324999Y-93225000D01*
X106324998Y-93225000D01*
X106200003Y-93299996D01*
X105786752Y-93805080D01*
X105729065Y-93844500D01*
X105691962Y-93850552D01*
X103170561Y-93874566D01*
X103103337Y-93855521D01*
X103089997Y-93845831D01*
X102869617Y-93662180D01*
X102830718Y-93604140D01*
X102825000Y-93566921D01*
X102825000Y-89889738D01*
X102844685Y-89822699D01*
X102848097Y-89817665D01*
X102930606Y-89702150D01*
X103075000Y-89500000D01*
X103150000Y-89150000D01*
X103150000Y-87875000D01*
X102975000Y-87250000D01*
X102861481Y-87136481D01*
X102827998Y-87075161D01*
X102825165Y-87048405D01*
X102833773Y-84362908D01*
X102848432Y-79789101D01*
X102868331Y-79722127D01*
X102921281Y-79676541D01*
X102990471Y-79666819D01*
X103053934Y-79696048D01*
G37*
G04 #@! TD.AperFunction*
G04 #@! TD*
G04 #@! TA.AperFunction,Conductor*
G04 #@! TO.N,Net-(Q1-C)*
G36*
X109920774Y-76472915D02*
G01*
X109987405Y-76493936D01*
X110032095Y-76547644D01*
X110040851Y-76578035D01*
X110074999Y-76799996D01*
X110075000Y-76800000D01*
X110746719Y-77615659D01*
X110774142Y-77679922D01*
X110775000Y-77694486D01*
X110775000Y-78923638D01*
X110766355Y-78953078D01*
X110759832Y-78983065D01*
X110756077Y-78988080D01*
X110755315Y-78990677D01*
X110738681Y-79011319D01*
X110711319Y-79038681D01*
X110649996Y-79072166D01*
X110623638Y-79075000D01*
X109862734Y-79075000D01*
X109795695Y-79055315D01*
X109753322Y-79009353D01*
X108789588Y-77202352D01*
X108775000Y-77143999D01*
X108775000Y-76576504D01*
X108794685Y-76509465D01*
X108847489Y-76463710D01*
X108901477Y-76452529D01*
X109920774Y-76472915D01*
G37*
G04 #@! TD.AperFunction*
G04 #@! TD*
G04 #@! TA.AperFunction,Conductor*
G04 #@! TO.N,+5V_ALWAYS_ON*
G36*
X112650653Y-94668840D02*
G01*
X112659199Y-94674428D01*
X112742574Y-94733981D01*
X112785684Y-94788963D01*
X112794500Y-94834883D01*
X112794500Y-95087408D01*
X112794481Y-95089583D01*
X112776063Y-96139362D01*
X112755205Y-96206046D01*
X112726482Y-96236387D01*
X112475000Y-96424999D01*
X112475000Y-97126000D01*
X112455315Y-97193039D01*
X112402511Y-97238794D01*
X112351000Y-97250000D01*
X110624000Y-97250000D01*
X110556961Y-97230315D01*
X110511206Y-97177511D01*
X110500000Y-97126000D01*
X110500000Y-96837543D01*
X110519685Y-96770504D01*
X110520790Y-96768813D01*
X110700000Y-96500000D01*
X110775000Y-96200000D01*
X110775000Y-95076315D01*
X110777094Y-95066442D01*
X110776089Y-95059918D01*
X110785687Y-95025954D01*
X110856932Y-94865652D01*
X110902147Y-94812385D01*
X110914784Y-94805107D01*
X111100763Y-94712118D01*
X111152083Y-94699097D01*
X112582995Y-94651400D01*
X112650653Y-94668840D01*
G37*
G04 #@! TD.AperFunction*
G04 #@! TD*
G04 #@! TA.AperFunction,Conductor*
G04 #@! TO.N,Net-(U1-F{slash}B)*
G36*
X127814688Y-70119415D02*
G01*
X127837273Y-70137273D01*
X127883181Y-70183181D01*
X127916666Y-70244504D01*
X127919500Y-70270862D01*
X127919500Y-71706166D01*
X127919841Y-71718005D01*
X127919842Y-71718022D01*
X127919893Y-71719792D01*
X127919868Y-71719792D01*
X127919999Y-71724316D01*
X127919999Y-72634314D01*
X127919989Y-72635874D01*
X127900591Y-74177958D01*
X127880065Y-74244744D01*
X127868354Y-74259809D01*
X127686899Y-74459411D01*
X127627238Y-74495775D01*
X127595146Y-74500000D01*
X126269894Y-74500000D01*
X126245643Y-74492879D01*
X126220564Y-74489765D01*
X126207371Y-74481641D01*
X126202855Y-74480315D01*
X126190511Y-74471259D01*
X126119617Y-74412180D01*
X126080718Y-74354140D01*
X126075000Y-74316921D01*
X126075000Y-73754272D01*
X126088091Y-73698818D01*
X126125000Y-73625000D01*
X126140744Y-73577766D01*
X126170697Y-73529302D01*
X126350000Y-73350000D01*
X126400000Y-73250000D01*
X126375309Y-71571052D01*
X126381660Y-71530020D01*
X126400000Y-71475000D01*
X126400000Y-70247651D01*
X126419685Y-70180612D01*
X126472489Y-70134857D01*
X126521703Y-70123672D01*
X127747299Y-70100975D01*
X127814688Y-70119415D01*
G37*
G04 #@! TD.AperFunction*
G04 #@! TD*
G04 #@! TA.AperFunction,Conductor*
G04 #@! TO.N,Net-(D2-A)*
G36*
X116386662Y-72397285D02*
G01*
X116434533Y-72448179D01*
X116447917Y-72506216D01*
X116425626Y-73910542D01*
X116404880Y-73977261D01*
X116401684Y-73981837D01*
X112800000Y-78899997D01*
X112799999Y-78900001D01*
X112774999Y-79350012D01*
X112700966Y-81496957D01*
X112687055Y-81549892D01*
X112049999Y-82775001D01*
X112000000Y-83099994D01*
X112000000Y-83099999D01*
X112000000Y-83100000D01*
X112050000Y-86800000D01*
X112741919Y-86779032D01*
X112809522Y-86796677D01*
X112856855Y-86848071D01*
X112869570Y-86908032D01*
X112829700Y-87884837D01*
X112807298Y-87951018D01*
X112752672Y-87994581D01*
X112709801Y-88003716D01*
X112118921Y-88022776D01*
X112051282Y-88005263D01*
X112011749Y-87967623D01*
X111515602Y-87223403D01*
X111511361Y-87212303D01*
X111505935Y-87206030D01*
X111496022Y-87172156D01*
X111476294Y-87034060D01*
X111475050Y-87015843D01*
X111475643Y-86908032D01*
X111499812Y-82509182D01*
X111517677Y-82445742D01*
X112224999Y-81275002D01*
X112225000Y-81275001D01*
X112225000Y-79800000D01*
X111769812Y-79081282D01*
X111750574Y-79014116D01*
X111750585Y-79013141D01*
X111774598Y-77500282D01*
X111785268Y-77451896D01*
X111875000Y-77250000D01*
X111825465Y-75441984D01*
X111829121Y-75408517D01*
X111846700Y-75338203D01*
X111856088Y-75312824D01*
X111912821Y-75199356D01*
X111946263Y-75157989D01*
X112032733Y-75088812D01*
X112070976Y-75068007D01*
X112180309Y-75031563D01*
X112220754Y-75025207D01*
X114700000Y-75050000D01*
X114800000Y-75000000D01*
X115000000Y-74875000D01*
X115150000Y-74725000D01*
X115200000Y-74450000D01*
X115223548Y-72542568D01*
X115244059Y-72475779D01*
X115297424Y-72430679D01*
X115342477Y-72420204D01*
X116318879Y-72380351D01*
X116386662Y-72397285D01*
G37*
G04 #@! TD.AperFunction*
G04 #@! TD*
G04 #@! TA.AperFunction,Conductor*
G04 #@! TO.N,Net-(U1-CF)*
G36*
X118593039Y-74994685D02*
G01*
X118638794Y-75047489D01*
X118650000Y-75099000D01*
X118650000Y-75669301D01*
X118630315Y-75736340D01*
X118577511Y-75782095D01*
X118519483Y-75793130D01*
X118220929Y-75777417D01*
X118175000Y-75775000D01*
X118174999Y-75775000D01*
X118174998Y-75775000D01*
X117975003Y-75974995D01*
X117975000Y-75975000D01*
X115800000Y-79175000D01*
X115800000Y-79175001D01*
X115800000Y-79476000D01*
X115780315Y-79543039D01*
X115727511Y-79588794D01*
X115676000Y-79600000D01*
X115074411Y-79600000D01*
X115054834Y-79594251D01*
X115034447Y-79593384D01*
X115021989Y-79584607D01*
X115007372Y-79580315D01*
X114994011Y-79564896D01*
X114977329Y-79553143D01*
X114971594Y-79539025D01*
X114961617Y-79527511D01*
X114958713Y-79507315D01*
X114951034Y-79488411D01*
X114952167Y-79461789D01*
X114951673Y-79458353D01*
X114952535Y-79453149D01*
X114994721Y-79228153D01*
X115017090Y-79177015D01*
X117892400Y-75310220D01*
X117909516Y-75291541D01*
X118117198Y-75106934D01*
X118133849Y-75094468D01*
X118294843Y-74993847D01*
X118311588Y-74989045D01*
X118325628Y-74980023D01*
X118360563Y-74975000D01*
X118526000Y-74975000D01*
X118593039Y-74994685D01*
G37*
G04 #@! TD.AperFunction*
G04 #@! TD*
G04 #@! TA.AperFunction,Conductor*
G04 #@! TO.N,/VOUT*
G36*
X129533961Y-83894685D02*
G01*
X129562180Y-83919616D01*
X129621259Y-83990511D01*
X129649055Y-84054613D01*
X129650000Y-84069893D01*
X129650000Y-99098738D01*
X129630315Y-99165777D01*
X129577511Y-99211532D01*
X129523759Y-99222718D01*
X125621759Y-99152200D01*
X125555087Y-99131307D01*
X125510293Y-99077685D01*
X125500000Y-99028220D01*
X125500000Y-96999915D01*
X125519685Y-96932876D01*
X125572489Y-96887121D01*
X125624909Y-96875918D01*
X128900000Y-96900000D01*
X129150000Y-96650000D01*
X129050000Y-84700000D01*
X128875000Y-84575000D01*
X126253508Y-84575000D01*
X126186469Y-84555315D01*
X126140714Y-84502511D01*
X126129587Y-84446574D01*
X126145730Y-83994574D01*
X126167795Y-83928280D01*
X126222198Y-83884439D01*
X126269651Y-83875000D01*
X129466922Y-83875000D01*
X129533961Y-83894685D01*
G37*
G04 #@! TD.AperFunction*
G04 #@! TD*
G04 #@! TA.AperFunction,Conductor*
G04 #@! TO.N,+12V_ALWAYS_ON*
G36*
X128537747Y-84919685D02*
G01*
X128561824Y-84939893D01*
X128792492Y-85189783D01*
X128823499Y-85252396D01*
X128825372Y-85272926D01*
X128899810Y-94850620D01*
X128898323Y-94858504D01*
X128899256Y-94863335D01*
X128890945Y-94897636D01*
X128831179Y-95047052D01*
X128788005Y-95101986D01*
X128721985Y-95124858D01*
X128716048Y-95125000D01*
X121250000Y-95125000D01*
X120974999Y-95300000D01*
X120925000Y-95524999D01*
X120925000Y-96132633D01*
X120920229Y-96166699D01*
X120885495Y-96288265D01*
X120848150Y-96347317D01*
X120845650Y-96349458D01*
X120759488Y-96421259D01*
X120695387Y-96449055D01*
X120680106Y-96450000D01*
X120225000Y-96450000D01*
X120074999Y-96500000D01*
X119950000Y-96624999D01*
X119950000Y-97149420D01*
X119930315Y-97216459D01*
X119877511Y-97262214D01*
X119824430Y-97273410D01*
X118094678Y-97251514D01*
X118027894Y-97230983D01*
X117982811Y-97177604D01*
X117972280Y-97130341D01*
X117960795Y-96624999D01*
X117951284Y-96206528D01*
X117969440Y-96139062D01*
X117991835Y-96111967D01*
X118189528Y-95932246D01*
X118252375Y-95901717D01*
X118272939Y-95900000D01*
X119350000Y-95900000D01*
X119675000Y-95575000D01*
X119675000Y-92800000D01*
X119675000Y-92799999D01*
X118300000Y-90775000D01*
X118125000Y-90800000D01*
X119432902Y-92996289D01*
X119450355Y-93058415D01*
X119474445Y-95322866D01*
X119465941Y-95353011D01*
X119459285Y-95383610D01*
X119456113Y-95387846D01*
X119455475Y-95390111D01*
X119438135Y-95411865D01*
X119411318Y-95438681D01*
X119349998Y-95472166D01*
X119323638Y-95475000D01*
X118229272Y-95475000D01*
X118173818Y-95461909D01*
X118016854Y-95383427D01*
X117965695Y-95335840D01*
X117948339Y-95275273D01*
X117944996Y-95124858D01*
X117900000Y-93100000D01*
X117899999Y-93099998D01*
X116789338Y-91675000D01*
X116601916Y-91434534D01*
X116576231Y-91369559D01*
X116575737Y-91356234D01*
X116650000Y-86950000D01*
X116337276Y-86300496D01*
X116325000Y-86246703D01*
X116325000Y-85074000D01*
X116344685Y-85006961D01*
X116397489Y-84961206D01*
X116449000Y-84950000D01*
X119986187Y-84950000D01*
X119991923Y-84951684D01*
X119997795Y-84950544D01*
X120025068Y-84961417D01*
X120053226Y-84969685D01*
X120058569Y-84974772D01*
X120062697Y-84976418D01*
X120087090Y-85001926D01*
X120138571Y-85074000D01*
X120151903Y-85092664D01*
X120174851Y-85158658D01*
X120175000Y-85164738D01*
X120175000Y-91675000D01*
X120758282Y-92306889D01*
X120783521Y-92348129D01*
X120942003Y-92778296D01*
X120949632Y-92823131D01*
X120924999Y-94374998D01*
X120925000Y-94375000D01*
X121175000Y-94650000D01*
X121350000Y-94750000D01*
X128025000Y-94725000D01*
X128250000Y-94650000D01*
X128375000Y-94450000D01*
X128375000Y-86025000D01*
X128179090Y-85937929D01*
X128149998Y-85924999D01*
X126297521Y-85949374D01*
X126271037Y-85941974D01*
X126243834Y-85937929D01*
X126234228Y-85931690D01*
X126230229Y-85930573D01*
X126214235Y-85918705D01*
X126094115Y-85813600D01*
X126056625Y-85754640D01*
X126051831Y-85716407D01*
X126066331Y-85252396D01*
X126072886Y-85042638D01*
X126094654Y-84976247D01*
X126133028Y-84940183D01*
X126133512Y-84939893D01*
X126170548Y-84917670D01*
X126234345Y-84900000D01*
X128470708Y-84900000D01*
X128537747Y-84919685D01*
G37*
G04 #@! TD.AperFunction*
G04 #@! TD*
G04 #@! TA.AperFunction,Conductor*
G04 #@! TO.N,GND*
G36*
X128792666Y-64619889D02*
G01*
X128838610Y-64672529D01*
X128850000Y-64724443D01*
X128850000Y-65601943D01*
X128830315Y-65668982D01*
X128777511Y-65714737D01*
X128726947Y-65725939D01*
X125679840Y-65749199D01*
X125612652Y-65730027D01*
X125566495Y-65677574D01*
X125556780Y-65646752D01*
X125500000Y-65325000D01*
X124225000Y-65325000D01*
X123825000Y-65749999D01*
X123824999Y-65750001D01*
X123849999Y-67024999D01*
X124105107Y-67419256D01*
X124124999Y-67486234D01*
X124125000Y-67486619D01*
X124125000Y-68276000D01*
X124105315Y-68343039D01*
X124052511Y-68388794D01*
X124001000Y-68400000D01*
X123020694Y-68400000D01*
X122953655Y-68380315D01*
X122907900Y-68327511D01*
X122896739Y-68279350D01*
X122896648Y-68276000D01*
X122877484Y-67566910D01*
X122895350Y-67499364D01*
X122946899Y-67452199D01*
X122962222Y-67445925D01*
X123325000Y-67325000D01*
X123406282Y-67174048D01*
X123500000Y-67000001D01*
X123500000Y-67000000D01*
X123484574Y-66275000D01*
X123475000Y-65825000D01*
X123400000Y-65450000D01*
X123200000Y-65325000D01*
X123199999Y-65324999D01*
X122000001Y-65299999D01*
X121999998Y-65300000D01*
X121482083Y-65700208D01*
X121417000Y-65725623D01*
X121409470Y-65726048D01*
X118610024Y-65798447D01*
X118542498Y-65780502D01*
X118511558Y-65753870D01*
X118510361Y-65752434D01*
X118466819Y-65700183D01*
X118425000Y-65649999D01*
X117525003Y-65624999D01*
X117525000Y-65625000D01*
X116658137Y-66251067D01*
X116592264Y-66274360D01*
X116584127Y-66274535D01*
X114425000Y-66250000D01*
X114175001Y-66374998D01*
X114174998Y-66375001D01*
X114000000Y-66649999D01*
X114000000Y-66650000D01*
X114020320Y-67198647D01*
X114003130Y-67266369D01*
X113952056Y-67314047D01*
X113898580Y-67327217D01*
X112652632Y-67349076D01*
X112622035Y-67340671D01*
X112591030Y-67333927D01*
X112587291Y-67331128D01*
X112585258Y-67330570D01*
X112562776Y-67312776D01*
X112485371Y-67235371D01*
X112451886Y-67174048D01*
X112449073Y-67149994D01*
X112425000Y-65850000D01*
X112392725Y-65824180D01*
X112300001Y-65750000D01*
X112299999Y-65750000D01*
X100999814Y-65824180D01*
X100932647Y-65804936D01*
X100886546Y-65752434D01*
X100875000Y-65700183D01*
X100875000Y-64823557D01*
X100894685Y-64756518D01*
X100947489Y-64710763D01*
X100998555Y-64699558D01*
X128725559Y-64600444D01*
X128792666Y-64619889D01*
G37*
G04 #@! TD.AperFunction*
G04 #@! TD*
G04 #@! TA.AperFunction,Conductor*
G04 #@! TO.N,GND*
G36*
X102002261Y-66725082D02*
G01*
X104698137Y-66824014D01*
X104708473Y-66826655D01*
X104715551Y-66825891D01*
X104749044Y-66837022D01*
X104812130Y-66868565D01*
X104836054Y-66884211D01*
X104891978Y-66930815D01*
X104947900Y-66977417D01*
X104986154Y-67033464D01*
X105043774Y-67206324D01*
X105050134Y-67244687D01*
X105074644Y-70823141D01*
X105055419Y-70890313D01*
X105038328Y-70911671D01*
X104375000Y-71574999D01*
X104374999Y-71575002D01*
X104375000Y-71575002D01*
X104350000Y-71675000D01*
X104325000Y-73450000D01*
X104400000Y-73625000D01*
X104475000Y-73725000D01*
X104900000Y-73800000D01*
X104900004Y-73799999D01*
X104900006Y-73800000D01*
X105063647Y-73795454D01*
X105772761Y-73775756D01*
X105783597Y-73777824D01*
X105790958Y-73776589D01*
X105825044Y-73785733D01*
X105933250Y-73832107D01*
X105987115Y-73876608D01*
X105995313Y-73890626D01*
X106061909Y-74023818D01*
X106075000Y-74079272D01*
X106075000Y-75249998D01*
X106150000Y-75774999D01*
X106150000Y-75775000D01*
X106699621Y-76649397D01*
X106700384Y-76650627D01*
X108675001Y-79875002D01*
X108725399Y-79912800D01*
X108728098Y-79916412D01*
X108732203Y-79918287D01*
X108748824Y-79944150D01*
X108767221Y-79968771D01*
X108768222Y-79974334D01*
X108769977Y-79977065D01*
X108775000Y-80012000D01*
X108775000Y-80096289D01*
X108774777Y-80103716D01*
X108706994Y-81233427D01*
X108683330Y-81299167D01*
X108627880Y-81341677D01*
X108583217Y-81350000D01*
X107875000Y-81350000D01*
X107626509Y-81548792D01*
X107623447Y-81551164D01*
X107425000Y-81700000D01*
X107424999Y-81700000D01*
X106617941Y-83100000D01*
X106200000Y-83825000D01*
X105825000Y-84475000D01*
X105775000Y-86600000D01*
X106335813Y-87137445D01*
X106370594Y-87198041D01*
X106373995Y-87229267D01*
X106350700Y-88487177D01*
X106329777Y-88553840D01*
X106328306Y-88555990D01*
X106175002Y-88774997D01*
X106175000Y-88775000D01*
X106050000Y-89300000D01*
X106050000Y-91475000D01*
X106250000Y-91700000D01*
X106249999Y-91700000D01*
X106274999Y-91700520D01*
X107450000Y-91725000D01*
X107575000Y-91675000D01*
X107675000Y-91600000D01*
X107750000Y-91500000D01*
X107766371Y-91287165D01*
X107791139Y-91221835D01*
X107847297Y-91180265D01*
X107887472Y-91172704D01*
X108873470Y-91152582D01*
X108940897Y-91170894D01*
X108987720Y-91222754D01*
X109000000Y-91276556D01*
X109000000Y-92101000D01*
X108980315Y-92168039D01*
X108927511Y-92213794D01*
X108876000Y-92225000D01*
X105804272Y-92225000D01*
X105791680Y-92222027D01*
X105782309Y-92223039D01*
X105748816Y-92211908D01*
X105717165Y-92196082D01*
X105666007Y-92148494D01*
X105657490Y-92131226D01*
X105625000Y-92050000D01*
X105567671Y-91954451D01*
X105550000Y-91890654D01*
X105550000Y-89574999D01*
X105500001Y-89450002D01*
X105499999Y-89449999D01*
X105350001Y-89300001D01*
X105350000Y-89300000D01*
X105225000Y-89275000D01*
X105224999Y-89275000D01*
X104900000Y-89275000D01*
X104862499Y-89300001D01*
X104856239Y-89304174D01*
X104789540Y-89324982D01*
X104787456Y-89325000D01*
X103937000Y-89325000D01*
X103932672Y-89323729D01*
X103928267Y-89324692D01*
X103899451Y-89313974D01*
X103869961Y-89305315D01*
X103865824Y-89301467D01*
X103862780Y-89300335D01*
X103837801Y-89275401D01*
X103825503Y-89259004D01*
X103801026Y-89193562D01*
X103800720Y-89182502D01*
X103811339Y-88555990D01*
X103824416Y-87784422D01*
X103843245Y-87720807D01*
X104075000Y-87350000D01*
X104099544Y-84969167D01*
X104119918Y-84902337D01*
X104128268Y-84891077D01*
X104350000Y-84625000D01*
X104350000Y-83143497D01*
X104356782Y-83120398D01*
X104359271Y-83096453D01*
X104368337Y-83081046D01*
X104369685Y-83076458D01*
X104377172Y-83066035D01*
X104532989Y-82871263D01*
X104574356Y-82837821D01*
X104623820Y-82813089D01*
X104679272Y-82800000D01*
X105000000Y-82800000D01*
X105125000Y-82750000D01*
X105250000Y-82650000D01*
X105325000Y-82475000D01*
X105344619Y-79944150D01*
X105350000Y-79250006D01*
X105349999Y-79250005D01*
X105350000Y-79250000D01*
X105275000Y-78900000D01*
X105100000Y-78725000D01*
X104775001Y-78675000D01*
X104775000Y-78675000D01*
X103638611Y-78675000D01*
X103611712Y-78672047D01*
X103205920Y-78581871D01*
X103192607Y-78575129D01*
X103180763Y-78573368D01*
X103151164Y-78554143D01*
X102987386Y-78410837D01*
X102965867Y-78386301D01*
X102845826Y-78206239D01*
X102825018Y-78139539D01*
X102825000Y-78137456D01*
X102825000Y-76901482D01*
X102825035Y-76898530D01*
X102897118Y-73871048D01*
X102918393Y-73804497D01*
X102972271Y-73760011D01*
X103021083Y-73750000D01*
X103175000Y-73750000D01*
X103300000Y-73625000D01*
X103325000Y-71800000D01*
X103275000Y-71650000D01*
X103194230Y-71574999D01*
X101900349Y-70373538D01*
X101891516Y-70359144D01*
X101879923Y-70348949D01*
X101865497Y-70316741D01*
X101829637Y-70191232D01*
X101824873Y-70158113D01*
X101800390Y-66901906D01*
X101819569Y-66834722D01*
X101836702Y-66813297D01*
X101888682Y-66761318D01*
X101950005Y-66727834D01*
X101976362Y-66725000D01*
X101997715Y-66725000D01*
X102002261Y-66725082D01*
G37*
G04 #@! TD.AperFunction*
G04 #@! TD*
G04 #@! TA.AperFunction,Conductor*
G04 #@! TO.N,-12V*
G36*
X113298530Y-92944235D02*
G01*
X113309638Y-92951941D01*
X113451041Y-93061922D01*
X113491873Y-93118618D01*
X113498892Y-93162015D01*
X113475433Y-94475702D01*
X113465427Y-94522333D01*
X113400001Y-94674995D01*
X113399999Y-94675002D01*
X113375000Y-96299998D01*
X113375000Y-96300000D01*
X113550000Y-96500000D01*
X113824999Y-96700000D01*
X113825000Y-96700000D01*
X114548141Y-96700000D01*
X114558545Y-96702253D01*
X114565570Y-96701231D01*
X114599448Y-96711113D01*
X114822189Y-96812359D01*
X114868755Y-96849113D01*
X114998880Y-97016417D01*
X115024500Y-97081420D01*
X115025000Y-97092546D01*
X115025000Y-97126000D01*
X115005315Y-97193039D01*
X114952511Y-97238794D01*
X114901000Y-97250000D01*
X113124000Y-97250000D01*
X113056961Y-97230315D01*
X113011206Y-97177511D01*
X113000000Y-97126000D01*
X113000000Y-94550000D01*
X112950000Y-94275000D01*
X112949999Y-94274999D01*
X112166335Y-94251951D01*
X112158725Y-94249471D01*
X112150787Y-94250511D01*
X112125977Y-94238800D01*
X112099903Y-94230304D01*
X112093227Y-94223341D01*
X112087603Y-94220687D01*
X112064828Y-94193724D01*
X111993848Y-94080155D01*
X111975000Y-94014436D01*
X111975000Y-93071638D01*
X111994685Y-93004599D01*
X112047489Y-92958844D01*
X112096614Y-92947661D01*
X113231127Y-92925843D01*
X113298530Y-92944235D01*
G37*
G04 #@! TD.AperFunction*
G04 #@! TD*
G04 #@! TA.AperFunction,Conductor*
G04 #@! TO.N,Net-(U1-OVP)*
G36*
X121393039Y-66719685D02*
G01*
X121438794Y-66772489D01*
X121450000Y-66824000D01*
X121450000Y-67631273D01*
X121430315Y-67698312D01*
X121391720Y-67736425D01*
X121250000Y-67825000D01*
X121149999Y-68025000D01*
X121149999Y-68025001D01*
X121065000Y-68449998D01*
X121050000Y-68525000D01*
X121050000Y-69675000D01*
X121325000Y-70175000D01*
X121449994Y-70195832D01*
X121474993Y-70199999D01*
X121474994Y-70199999D01*
X121475000Y-70200000D01*
X122371305Y-70247173D01*
X122437215Y-70270354D01*
X122459634Y-70291128D01*
X122825000Y-70725000D01*
X123747454Y-70749275D01*
X123758449Y-70752023D01*
X123766154Y-70751192D01*
X123799646Y-70762323D01*
X123988030Y-70856515D01*
X124039189Y-70904102D01*
X124043485Y-70911970D01*
X124136909Y-71098818D01*
X124150000Y-71154272D01*
X124150000Y-71350000D01*
X124457101Y-71869710D01*
X124474323Y-71935176D01*
X124424999Y-74499996D01*
X124424999Y-74499997D01*
X124425000Y-74500000D01*
X124475000Y-74700000D01*
X125650000Y-76125000D01*
X125850000Y-76200000D01*
X126048992Y-76200000D01*
X126050992Y-76200016D01*
X127473721Y-76222963D01*
X127540434Y-76243726D01*
X127585331Y-76297261D01*
X127595647Y-76351220D01*
X127579177Y-76828856D01*
X127557194Y-76895178D01*
X127502845Y-76939086D01*
X127453792Y-76948574D01*
X125509741Y-76925702D01*
X125442938Y-76905231D01*
X125413320Y-76877840D01*
X125003727Y-76351220D01*
X123376562Y-74259151D01*
X123350943Y-74194150D01*
X123350450Y-74181746D01*
X123375000Y-71825000D01*
X123374999Y-71824999D01*
X123375000Y-71824999D01*
X122800000Y-71225000D01*
X122799999Y-71224999D01*
X122664482Y-71179827D01*
X122637121Y-71166804D01*
X122100001Y-70825000D01*
X122099999Y-70824999D01*
X121750004Y-70750000D01*
X121750000Y-70750000D01*
X120945123Y-70750000D01*
X120942190Y-70749524D01*
X120940641Y-70749919D01*
X120905912Y-70743637D01*
X120818515Y-70714505D01*
X120761141Y-70674630D01*
X120751399Y-70660665D01*
X120709494Y-70590823D01*
X120695525Y-70557101D01*
X120693750Y-70550000D01*
X120654465Y-70392861D01*
X120650919Y-70356607D01*
X120673700Y-69900986D01*
X120686634Y-69851730D01*
X120750000Y-69725000D01*
X120775000Y-68225000D01*
X120525000Y-67825000D01*
X120524998Y-67824999D01*
X120524997Y-67824998D01*
X120275008Y-67750001D01*
X120274994Y-67749998D01*
X119900002Y-67700000D01*
X119899997Y-67699999D01*
X119075000Y-67799999D01*
X119074999Y-67800000D01*
X118950000Y-68049999D01*
X118950000Y-68542968D01*
X118930315Y-68610007D01*
X118906698Y-68637116D01*
X116709827Y-70520148D01*
X116686024Y-70530864D01*
X116664064Y-70544977D01*
X116650271Y-70546960D01*
X116646116Y-70548831D01*
X116629129Y-70550000D01*
X116527061Y-70550000D01*
X116460022Y-70530315D01*
X116414267Y-70477511D01*
X116403098Y-70422977D01*
X116407386Y-70247173D01*
X116422146Y-69642007D01*
X116443459Y-69575468D01*
X116497363Y-69531014D01*
X116541974Y-69521100D01*
X117175000Y-69500000D01*
X117325000Y-69475000D01*
X118264024Y-68600000D01*
X118424999Y-68450001D01*
X118424999Y-68450000D01*
X118425000Y-68450000D01*
X118400807Y-66877475D01*
X118409240Y-66847030D01*
X118415960Y-66816141D01*
X118418874Y-66812247D01*
X118419458Y-66810142D01*
X118437108Y-66787891D01*
X118488682Y-66736318D01*
X118550005Y-66702834D01*
X118576362Y-66700000D01*
X121326000Y-66700000D01*
X121393039Y-66719685D01*
G37*
G04 #@! TD.AperFunction*
G04 #@! TD*
G04 #@! TA.AperFunction,Conductor*
G04 #@! TO.N,Net-(R11-Pad2)*
G36*
X119482127Y-68685807D02*
G01*
X120249052Y-68830901D01*
X120311262Y-68862705D01*
X120346404Y-68923094D01*
X120350000Y-68952740D01*
X120350000Y-70418738D01*
X120335178Y-70477527D01*
X120209677Y-70710599D01*
X120160562Y-70760292D01*
X120101862Y-70775803D01*
X117933362Y-70799633D01*
X117900000Y-70800000D01*
X117414546Y-71236909D01*
X117399999Y-71250001D01*
X117124999Y-71700001D01*
X117174834Y-73718304D01*
X117174444Y-73731663D01*
X117127831Y-74291026D01*
X117105197Y-74352752D01*
X113700000Y-79124999D01*
X113700000Y-81676976D01*
X113691735Y-81721489D01*
X113325000Y-82674997D01*
X113397286Y-86048343D01*
X113379042Y-86115789D01*
X113327230Y-86162665D01*
X113273314Y-86175000D01*
X112599000Y-86175000D01*
X112531961Y-86155315D01*
X112486206Y-86102511D01*
X112475000Y-86051000D01*
X112475000Y-83009550D01*
X112492866Y-82945428D01*
X112656252Y-82674997D01*
X113200000Y-81775000D01*
X113200000Y-79014230D01*
X113219685Y-78947191D01*
X113222549Y-78942930D01*
X116575000Y-74175000D01*
X116650000Y-73875000D01*
X116662968Y-72681861D01*
X116673525Y-72633132D01*
X116697538Y-72578750D01*
X116700500Y-72553219D01*
X116700499Y-71596782D01*
X116697538Y-71571250D01*
X116676626Y-71523890D01*
X116651425Y-71466813D01*
X116651423Y-71466810D01*
X116651422Y-71466808D01*
X116623589Y-71438975D01*
X116597959Y-71401658D01*
X116575000Y-71350000D01*
X116574999Y-71349999D01*
X116474999Y-71307142D01*
X116400000Y-71275000D01*
X116399998Y-71274999D01*
X116399993Y-71274998D01*
X116200015Y-71250001D01*
X116200002Y-71250000D01*
X116200000Y-71250000D01*
X116199996Y-71250000D01*
X114854272Y-71250000D01*
X114798818Y-71236909D01*
X114675000Y-71175000D01*
X114674997Y-71174999D01*
X112070205Y-71150426D01*
X112003354Y-71130110D01*
X111990677Y-71120580D01*
X111675001Y-70850001D01*
X111675000Y-70850000D01*
X111674998Y-70850000D01*
X110905640Y-70850000D01*
X110847887Y-70835730D01*
X109455413Y-70102849D01*
X109444892Y-70096631D01*
X108436958Y-69431823D01*
X108391834Y-69378479D01*
X108382712Y-69309207D01*
X108412490Y-69246001D01*
X108439957Y-69222883D01*
X108748217Y-69032055D01*
X108815580Y-69013507D01*
X108857024Y-69021384D01*
X109174851Y-69140569D01*
X109218993Y-69168993D01*
X109350000Y-69300000D01*
X109350000Y-69299999D01*
X109350001Y-69300000D01*
X109382732Y-69299382D01*
X110626522Y-69275914D01*
X110693919Y-69294330D01*
X110711237Y-69307211D01*
X111800000Y-70275000D01*
X112300000Y-70600000D01*
X114702402Y-70624767D01*
X114746057Y-70633188D01*
X115175000Y-70800000D01*
X116849999Y-70800000D01*
X116850000Y-70800000D01*
X119380156Y-68712007D01*
X119444389Y-68684520D01*
X119482127Y-68685807D01*
G37*
G04 #@! TD.AperFunction*
G04 #@! TD*
G04 #@! TA.AperFunction,Conductor*
G04 #@! TO.N,Net-(C7-Pad1)*
G36*
X127619984Y-68145140D02*
G01*
X127666174Y-68197564D01*
X127677777Y-68247189D01*
X127697118Y-69098183D01*
X127678962Y-69165652D01*
X127627211Y-69212595D01*
X127573150Y-69225000D01*
X124774000Y-69225000D01*
X124706961Y-69205315D01*
X124661206Y-69152511D01*
X124650000Y-69101000D01*
X124650000Y-68272979D01*
X124669685Y-68205940D01*
X124722489Y-68160185D01*
X124772971Y-68148983D01*
X127552784Y-68126010D01*
X127619984Y-68145140D01*
G37*
G04 #@! TD.AperFunction*
G04 #@! TD*
G04 #@! TA.AperFunction,Conductor*
G04 #@! TO.N,Net-(D5-K)*
G36*
X105037551Y-90798469D02*
G01*
X105104338Y-90818990D01*
X105149429Y-90872361D01*
X105160000Y-90922459D01*
X105160000Y-91293958D01*
X105155917Y-91325515D01*
X105060000Y-91689998D01*
X105059064Y-91700340D01*
X105056517Y-91700109D01*
X105045156Y-91753713D01*
X104996016Y-91803382D01*
X104934966Y-91818865D01*
X104372811Y-91814141D01*
X104305939Y-91793893D01*
X104260630Y-91740707D01*
X104251268Y-91671467D01*
X104280826Y-91608158D01*
X104292191Y-91596832D01*
X104300000Y-91590000D01*
X104360000Y-91440000D01*
X104360000Y-90915559D01*
X104379685Y-90848520D01*
X104432489Y-90802765D01*
X104485548Y-90791569D01*
X105037551Y-90798469D01*
G37*
G04 #@! TD.AperFunction*
G04 #@! TD*
G04 #@! TA.AperFunction,Conductor*
G04 #@! TO.N,Net-(U1-CLM-)*
G36*
X120905463Y-82619386D02*
G01*
X121093039Y-82738752D01*
X121139030Y-82791351D01*
X121150464Y-82842514D01*
X121199999Y-90049999D01*
X121877802Y-91552953D01*
X122248529Y-92375000D01*
X122339037Y-92575690D01*
X122350000Y-92626667D01*
X122350000Y-93375000D01*
X125926000Y-93375000D01*
X125993039Y-93394685D01*
X126038794Y-93447489D01*
X126050000Y-93499000D01*
X126050000Y-94301000D01*
X126030315Y-94368039D01*
X125977511Y-94413794D01*
X125926000Y-94425000D01*
X121623397Y-94425000D01*
X121556358Y-94405315D01*
X121510603Y-94352511D01*
X121502641Y-94329177D01*
X121353517Y-93690073D01*
X121350297Y-93659525D01*
X121375000Y-92375000D01*
X120706536Y-91634915D01*
X120676210Y-91571972D01*
X120674563Y-91552953D01*
X120660604Y-90050000D01*
X120600000Y-83525000D01*
X120475000Y-83350000D01*
X120474999Y-83349999D01*
X120350001Y-83300000D01*
X118552006Y-83276649D01*
X118485227Y-83256095D01*
X118440162Y-83202701D01*
X118429701Y-83148070D01*
X118442913Y-82791351D01*
X118445577Y-82719409D01*
X118467729Y-82653146D01*
X118522190Y-82609376D01*
X118569492Y-82600000D01*
X120838891Y-82600000D01*
X120905463Y-82619386D01*
G37*
G04 #@! TD.AperFunction*
G04 #@! TD*
M02*
