G04 #@! TF.GenerationSoftware,KiCad,Pcbnew,9.0.4-9.0.4-0~ubuntu24.04.1*
G04 #@! TF.CreationDate,2025-09-01T13:53:31-07:00*
G04 #@! TF.ProjectId,iisi-riser-board,69697369-2d72-4697-9365-722d626f6172,rev?*
G04 #@! TF.SameCoordinates,Original*
G04 #@! TF.FileFunction,Paste,Top*
G04 #@! TF.FilePolarity,Positive*
%FSLAX46Y46*%
G04 Gerber Fmt 4.6, Leading zero omitted, Abs format (unit mm)*
G04 Created by KiCad (PCBNEW 9.0.4-9.0.4-0~ubuntu24.04.1) date 2025-09-01 13:53:31*
%MOMM*%
%LPD*%
G01*
G04 APERTURE LIST*
G04 Aperture macros list*
%AMRoundRect*
0 Rectangle with rounded corners*
0 $1 Rounding radius*
0 $2 $3 $4 $5 $6 $7 $8 $9 X,Y pos of 4 corners*
0 Add a 4 corners polygon primitive as box body*
4,1,4,$2,$3,$4,$5,$6,$7,$8,$9,$2,$3,0*
0 Add four circle primitives for the rounded corners*
1,1,$1+$1,$2,$3*
1,1,$1+$1,$4,$5*
1,1,$1+$1,$6,$7*
1,1,$1+$1,$8,$9*
0 Add four rect primitives between the rounded corners*
20,1,$1+$1,$2,$3,$4,$5,0*
20,1,$1+$1,$4,$5,$6,$7,0*
20,1,$1+$1,$6,$7,$8,$9,0*
20,1,$1+$1,$8,$9,$2,$3,0*%
%AMFreePoly0*
4,1,9,1.362500,0.475000,0.937500,0.475000,0.937500,-0.475000,1.362500,-0.475000,1.362500,-1.250000,-0.937500,-1.250000,-0.937500,1.250000,1.362500,1.250000,1.362500,0.475000,1.362500,0.475000,$1*%
G04 Aperture macros list end*
%ADD10RoundRect,0.100000X0.575000X-0.437500X0.575000X0.437500X-0.575000X0.437500X-0.575000X-0.437500X0*%
%ADD11RoundRect,0.100000X0.625000X-0.425000X0.625000X0.425000X-0.625000X0.425000X-0.625000X-0.425000X0*%
%ADD12RoundRect,0.100000X0.525000X0.525000X-0.525000X0.525000X-0.525000X-0.525000X0.525000X-0.525000X0*%
%ADD13RoundRect,0.090244X0.372256X0.734756X-0.372256X0.734756X-0.372256X-0.734756X0.372256X-0.734756X0*%
%ADD14RoundRect,0.085366X0.352134X0.739634X-0.352134X0.739634X-0.352134X-0.739634X0.352134X-0.739634X0*%
%ADD15RoundRect,0.100000X-0.412500X-0.725000X0.412500X-0.725000X0.412500X0.725000X-0.412500X0.725000X0*%
%ADD16RoundRect,0.078049X-0.321951X-0.696951X0.321951X-0.696951X0.321951X0.696951X-0.321951X0.696951X0*%
%ADD17RoundRect,0.100000X-0.725000X0.412500X-0.725000X-0.412500X0.725000X-0.412500X0.725000X0.412500X0*%
%ADD18RoundRect,0.100000X0.412500X0.625000X-0.412500X0.625000X-0.412500X-0.625000X0.412500X-0.625000X0*%
%ADD19RoundRect,0.095305X0.412195X0.554695X-0.412195X0.554695X-0.412195X-0.554695X0.412195X-0.554695X0*%
%ADD20RoundRect,0.100000X-0.525000X-0.525000X0.525000X-0.525000X0.525000X0.525000X-0.525000X0.525000X0*%
%ADD21R,1.475000X1.100000*%
%ADD22R,1.500000X1.750000*%
%ADD23R,1.350000X1.100000*%
%ADD24RoundRect,0.100000X-0.412500X-0.575000X0.412500X-0.575000X0.412500X0.575000X-0.412500X0.575000X0*%
%ADD25RoundRect,0.100000X-0.437500X-0.600000X0.437500X-0.600000X0.437500X0.600000X-0.437500X0.600000X0*%
%ADD26RoundRect,0.100000X0.425000X-0.675000X0.425000X0.675000X-0.425000X0.675000X-0.425000X-0.675000X0*%
%ADD27FreePoly0,90.000000*%
%ADD28RoundRect,0.100000X-0.387500X-0.562500X0.387500X-0.562500X0.387500X0.562500X-0.387500X0.562500X0*%
%ADD29RoundRect,0.100000X-0.400000X-0.525000X0.400000X-0.525000X0.400000X0.525000X-0.400000X0.525000X0*%
%ADD30RoundRect,0.100000X0.562500X0.800000X-0.562500X0.800000X-0.562500X-0.800000X0.562500X-0.800000X0*%
%ADD31RoundRect,0.104878X0.545122X-0.432622X0.545122X0.432622X-0.545122X0.432622X-0.545122X-0.432622X0*%
%ADD32RoundRect,0.100000X0.650000X-0.412500X0.650000X0.412500X-0.650000X0.412500X-0.650000X-0.412500X0*%
%ADD33RoundRect,0.100000X0.900000X-1.462500X0.900000X1.462500X-0.900000X1.462500X-0.900000X-1.462500X0*%
%ADD34RoundRect,0.100000X0.962500X-1.462500X0.962500X1.462500X-0.962500X1.462500X-0.962500X-1.462500X0*%
%ADD35RoundRect,0.100000X-0.525000X0.525000X-0.525000X-0.525000X0.525000X-0.525000X0.525000X0.525000X0*%
%ADD36RoundRect,0.100000X0.587500X-0.400000X0.587500X0.400000X-0.587500X0.400000X-0.587500X-0.400000X0*%
%ADD37RoundRect,0.100000X0.612500X-0.437500X0.612500X0.437500X-0.612500X0.437500X-0.612500X-0.437500X0*%
%ADD38RoundRect,0.100000X0.437500X0.550000X-0.437500X0.550000X-0.437500X-0.550000X0.437500X-0.550000X0*%
%ADD39RoundRect,0.100000X0.425000X0.575000X-0.425000X0.575000X-0.425000X-0.575000X0.425000X-0.575000X0*%
%ADD40RoundRect,0.100000X0.525000X-0.525000X0.525000X0.525000X-0.525000X0.525000X-0.525000X-0.525000X0*%
%ADD41RoundRect,0.102439X-0.422561X-0.610061X0.422561X-0.610061X0.422561X0.610061X-0.422561X0.610061X0*%
%ADD42RoundRect,0.097561X-0.402439X-0.589939X0.402439X-0.589939X0.402439X0.589939X-0.402439X0.589939X0*%
%ADD43RoundRect,0.100000X0.562500X-0.425000X0.562500X0.425000X-0.562500X0.425000X-0.562500X-0.425000X0*%
%ADD44RoundRect,0.100000X0.612500X-0.425000X0.612500X0.425000X-0.612500X0.425000X-0.612500X-0.425000X0*%
%ADD45RoundRect,0.100000X-0.575000X0.412500X-0.575000X-0.412500X0.575000X-0.412500X0.575000X0.412500X0*%
%ADD46RoundRect,0.100000X-0.575000X0.437500X-0.575000X-0.437500X0.575000X-0.437500X0.575000X0.437500X0*%
%ADD47RoundRect,0.100000X0.562500X-0.412500X0.562500X0.412500X-0.562500X0.412500X-0.562500X-0.412500X0*%
%ADD48RoundRect,0.100000X0.425000X0.625000X-0.425000X0.625000X-0.425000X-0.625000X0.425000X-0.625000X0*%
%ADD49RoundRect,0.100000X0.412500X0.587500X-0.412500X0.587500X-0.412500X-0.587500X0.412500X-0.587500X0*%
%ADD50RoundRect,0.100000X0.600000X-0.412500X0.600000X0.412500X-0.600000X0.412500X-0.600000X-0.412500X0*%
%ADD51RoundRect,0.100000X0.537500X-0.400000X0.537500X0.400000X-0.537500X0.400000X-0.537500X-0.400000X0*%
%ADD52RoundRect,0.100000X-0.425000X-0.587500X0.425000X-0.587500X0.425000X0.587500X-0.425000X0.587500X0*%
%ADD53RoundRect,0.100000X0.412500X0.725000X-0.412500X0.725000X-0.412500X-0.725000X0.412500X-0.725000X0*%
%ADD54RoundRect,0.100000X0.662500X0.250000X-0.662500X0.250000X-0.662500X-0.250000X0.662500X-0.250000X0*%
%ADD55RoundRect,0.092683X-0.382317X-0.644817X0.382317X-0.644817X0.382317X0.644817X-0.382317X0.644817X0*%
%ADD56R,2.000000X2.350000*%
%ADD57RoundRect,0.100000X0.575000X-0.425000X0.575000X0.425000X-0.575000X0.425000X-0.575000X-0.425000X0*%
%ADD58RoundRect,0.100000X0.625000X-0.437500X0.625000X0.437500X-0.625000X0.437500X-0.625000X-0.437500X0*%
%ADD59RoundRect,0.102439X0.610061X-0.422561X0.610061X0.422561X-0.610061X0.422561X-0.610061X-0.422561X0*%
%ADD60RoundRect,0.100000X0.725000X-0.412500X0.725000X0.412500X-0.725000X0.412500X-0.725000X-0.412500X0*%
%ADD61RoundRect,0.100000X-0.400000X-0.625000X0.400000X-0.625000X0.400000X0.625000X-0.400000X0.625000X0*%
%ADD62RoundRect,0.100000X-0.612500X0.400000X-0.612500X-0.400000X0.612500X-0.400000X0.612500X0.400000X0*%
%ADD63RoundRect,0.100000X-1.300000X-0.975000X1.300000X-0.975000X1.300000X0.975000X-1.300000X0.975000X0*%
%ADD64RoundRect,0.100000X-1.525000X-0.975000X1.525000X-0.975000X1.525000X0.975000X-1.525000X0.975000X0*%
%ADD65RoundRect,0.097561X-0.402439X-0.727439X0.402439X-0.727439X0.402439X0.727439X-0.402439X0.727439X0*%
%ADD66RoundRect,0.100000X-0.412500X-0.650000X0.412500X-0.650000X0.412500X0.650000X-0.412500X0.650000X0*%
%ADD67RoundRect,0.100000X-0.562500X0.425000X-0.562500X-0.425000X0.562500X-0.425000X0.562500X0.425000X0*%
%ADD68RoundRect,0.100000X-0.612500X0.412500X-0.612500X-0.412500X0.612500X-0.412500X0.612500X0.412500X0*%
G04 APERTURE END LIST*
D10*
G04 #@! TO.C,R14*
X125300000Y-70750000D03*
D11*
X125350000Y-68687500D03*
G04 #@! TD*
D12*
G04 #@! TO.C,Q3*
X109650000Y-93425000D03*
X109650000Y-95325000D03*
X107150000Y-94375000D03*
G04 #@! TD*
D13*
G04 #@! TO.C,R12*
X115062500Y-85525000D03*
D14*
X112912500Y-85525000D03*
G04 #@! TD*
D15*
G04 #@! TO.C,R16*
X103337500Y-83600000D03*
X105337500Y-83600000D03*
G04 #@! TD*
D16*
G04 #@! TO.C,R7*
X104762500Y-90550000D03*
D15*
X106912500Y-90500000D03*
G04 #@! TD*
D17*
G04 #@! TO.C,R11*
X108325000Y-66812500D03*
X108325000Y-68812500D03*
G04 #@! TD*
D18*
G04 #@! TO.C,R2*
X117437500Y-81925000D03*
D19*
X115477500Y-81900000D03*
G04 #@! TD*
D20*
G04 #@! TO.C,D2*
X112625000Y-89300000D03*
X115125000Y-88350000D03*
X112625000Y-87400000D03*
G04 #@! TD*
D21*
G04 #@! TO.C,RV1*
X116250000Y-67350000D03*
D22*
X113275000Y-66400000D03*
D23*
X116225000Y-65350000D03*
G04 #@! TD*
D24*
G04 #@! TO.C,C1*
X115450000Y-80150000D03*
D25*
X117500000Y-80175000D03*
G04 #@! TD*
D26*
G04 #@! TO.C,U2*
X102350000Y-72550000D03*
D27*
X103850000Y-69993750D03*
D26*
X105350000Y-72550000D03*
G04 #@! TD*
D28*
G04 #@! TO.C,R3*
X122675000Y-66300000D03*
D29*
X124700000Y-66300000D03*
G04 #@! TD*
D30*
G04 #@! TO.C,C4*
X108175000Y-85675000D03*
X105025000Y-85675000D03*
G04 #@! TD*
D31*
G04 #@! TO.C,R5*
X115850000Y-72075000D03*
D32*
X115950000Y-70025000D03*
G04 #@! TD*
D33*
G04 #@! TO.C,C10*
X103875000Y-80825000D03*
D34*
X103875000Y-75350000D03*
G04 #@! TD*
D35*
G04 #@! TO.C,Q1*
X108450000Y-74000000D03*
X110350000Y-74000000D03*
X109400000Y-76500000D03*
G04 #@! TD*
D36*
G04 #@! TO.C,C2*
X126300000Y-67200000D03*
D37*
X126325000Y-65150000D03*
G04 #@! TD*
D38*
G04 #@! TO.C,R1*
X120475000Y-72650000D03*
D39*
X118475000Y-72675000D03*
G04 #@! TD*
D40*
G04 #@! TO.C,D5*
X105400000Y-94825000D03*
X104450000Y-92325000D03*
X103500000Y-94825000D03*
G04 #@! TD*
D41*
G04 #@! TO.C,R22*
X119950000Y-68950000D03*
D42*
X121950000Y-68850000D03*
G04 #@! TD*
D43*
G04 #@! TO.C,R10*
X122075000Y-95987500D03*
D44*
X122075000Y-93887500D03*
G04 #@! TD*
D35*
G04 #@! TO.C,D4*
X112200000Y-73900000D03*
X113150000Y-76400000D03*
X114100000Y-73900000D03*
G04 #@! TD*
D45*
G04 #@! TO.C,C7*
X127000000Y-68675000D03*
D46*
X127100000Y-70750000D03*
G04 #@! TD*
D17*
G04 #@! TO.C,R17*
X107025000Y-70325000D03*
X107025000Y-72325000D03*
G04 #@! TD*
D47*
G04 #@! TO.C,R21*
X127300000Y-95925000D03*
X127250000Y-93925000D03*
G04 #@! TD*
D48*
G04 #@! TO.C,C3*
X123925000Y-72575000D03*
D49*
X121875000Y-72650000D03*
G04 #@! TD*
D50*
G04 #@! TO.C,C6*
X123625000Y-69975000D03*
D51*
X123525000Y-67975000D03*
G04 #@! TD*
D25*
G04 #@! TO.C,C8*
X125400000Y-72400000D03*
D52*
X127400000Y-72350000D03*
G04 #@! TD*
D18*
G04 #@! TO.C,R18*
X107825000Y-87750000D03*
D53*
X105825000Y-87825000D03*
G04 #@! TD*
D54*
G04 #@! TO.C,U1*
X126825000Y-85490000D03*
X126825000Y-84220000D03*
X126825000Y-82950000D03*
X126825000Y-81680000D03*
X126825000Y-80410000D03*
X126825000Y-79140000D03*
X126825000Y-77870000D03*
X126825000Y-76600000D03*
X126825000Y-75330000D03*
X126825000Y-74060000D03*
X119100000Y-74060000D03*
X119100000Y-75330000D03*
X119100000Y-76600000D03*
X119100000Y-77870000D03*
X119100000Y-79140000D03*
X119100000Y-80410000D03*
X119100000Y-81680000D03*
X119100000Y-82950000D03*
X119100000Y-84220000D03*
X119100000Y-85490000D03*
G04 #@! TD*
D55*
G04 #@! TO.C,R4*
X110262500Y-78300000D03*
D15*
X112262500Y-78300000D03*
G04 #@! TD*
D56*
G04 #@! TO.C,J1*
X104000000Y-98425000D03*
X106500000Y-98425000D03*
X109000000Y-98425000D03*
X111500000Y-98425000D03*
X114000000Y-98425000D03*
X116500000Y-98425000D03*
X119000000Y-98425000D03*
X121500000Y-98425000D03*
X124000000Y-98425000D03*
X126500000Y-98425000D03*
G04 #@! TD*
D57*
G04 #@! TO.C,R20*
X128175000Y-67125000D03*
X128175000Y-65125000D03*
G04 #@! TD*
D58*
G04 #@! TO.C,R9*
X123850000Y-95912500D03*
D59*
X123850000Y-93912500D03*
G04 #@! TD*
D20*
G04 #@! TO.C,D6*
X116325000Y-95800000D03*
X118825000Y-94850000D03*
X116325000Y-93900000D03*
G04 #@! TD*
D60*
G04 #@! TO.C,R19*
X102650000Y-67312500D03*
X102650000Y-65312500D03*
G04 #@! TD*
D17*
G04 #@! TO.C,R13*
X110275000Y-68337500D03*
X110275000Y-70337500D03*
G04 #@! TD*
D40*
G04 #@! TO.C,D3*
X114100000Y-72175000D03*
X113150000Y-69675000D03*
X112200000Y-72175000D03*
G04 #@! TD*
D61*
G04 #@! TO.C,R15*
X101350000Y-90575000D03*
X103350000Y-90575000D03*
G04 #@! TD*
D62*
G04 #@! TO.C,R6*
X119200000Y-65200000D03*
X119125000Y-67225000D03*
G04 #@! TD*
D63*
G04 #@! TO.C,C9*
X118050000Y-89500000D03*
D64*
X123350000Y-89500000D03*
G04 #@! TD*
D35*
G04 #@! TO.C,Q4*
X108225000Y-80725000D03*
X110125000Y-80725000D03*
X109175000Y-83225000D03*
G04 #@! TD*
D65*
G04 #@! TO.C,R8*
X112250000Y-95500000D03*
D66*
X114237500Y-95400000D03*
G04 #@! TD*
D20*
G04 #@! TO.C,Q2*
X108400000Y-91550000D03*
X108400000Y-89650000D03*
X110900000Y-90600000D03*
G04 #@! TD*
D40*
G04 #@! TO.C,D1*
X114575000Y-93600000D03*
X113625000Y-91100000D03*
X112675000Y-93600000D03*
G04 #@! TD*
D67*
G04 #@! TO.C,C5*
X125550000Y-93900000D03*
D68*
X125600000Y-95900000D03*
G04 #@! TD*
M02*
